<mxfile host="app.diagrams.net" modified="2024-05-17T13:19:06.025Z" agent="Mozilla/5.0 (Windows NT 10.0; Win64; x64) AppleWebKit/537.36 (KHTML, like Gecko) Chrome/124.0.0.0 Safari/537.36" etag="g9RuzGE7mzs2jJqg9l1y" version="24.3.1" type="device">
  <diagram name="Page-1" id="0cosPn6xTyHGCCAWETIR">
    <mxGraphModel dx="1791" dy="940" grid="1" gridSize="10" guides="1" tooltips="1" connect="1" arrows="1" fold="1" page="1" pageScale="1" pageWidth="850" pageHeight="1100" math="0" shadow="0">
      <root>
        <mxCell id="0" />
        <mxCell id="1" parent="0" />
        <mxCell id="VEC3x4T9xkFiJiI4OAcC-1" value="AspNetRole" style="swimlane;fontStyle=1;align=center;verticalAlign=top;childLayout=stackLayout;horizontal=1;startSize=24.352941176470587;horizontalStack=0;resizeParent=1;resizeParentMax=0;resizeLast=0;collapsible=0;marginBottom=0;" vertex="1" parent="1">
          <mxGeometry x="20" y="121" width="370" height="204.35294117647058" as="geometry" />
        </mxCell>
        <mxCell id="VEC3x4T9xkFiJiI4OAcC-2" value="+string Id" style="text;strokeColor=none;fillColor=none;align=left;verticalAlign=top;spacingLeft=4;spacingRight=4;overflow=hidden;rotatable=0;points=[[0,0.5],[1,0.5]];portConstraint=eastwest;" vertex="1" parent="VEC3x4T9xkFiJiI4OAcC-1">
          <mxGeometry y="24.352941176470587" width="370" height="24" as="geometry" />
        </mxCell>
        <mxCell id="VEC3x4T9xkFiJiI4OAcC-3" value="+string? Name" style="text;strokeColor=none;fillColor=none;align=left;verticalAlign=top;spacingLeft=4;spacingRight=4;overflow=hidden;rotatable=0;points=[[0,0.5],[1,0.5]];portConstraint=eastwest;" vertex="1" parent="VEC3x4T9xkFiJiI4OAcC-1">
          <mxGeometry y="48.35294117647059" width="370" height="24" as="geometry" />
        </mxCell>
        <mxCell id="VEC3x4T9xkFiJiI4OAcC-4" value="+string? NormalizedName" style="text;strokeColor=none;fillColor=none;align=left;verticalAlign=top;spacingLeft=4;spacingRight=4;overflow=hidden;rotatable=0;points=[[0,0.5],[1,0.5]];portConstraint=eastwest;" vertex="1" parent="VEC3x4T9xkFiJiI4OAcC-1">
          <mxGeometry y="72.35294117647058" width="370" height="24" as="geometry" />
        </mxCell>
        <mxCell id="VEC3x4T9xkFiJiI4OAcC-5" value="+string? ConcurrencyStamp" style="text;strokeColor=none;fillColor=none;align=left;verticalAlign=top;spacingLeft=4;spacingRight=4;overflow=hidden;rotatable=0;points=[[0,0.5],[1,0.5]];portConstraint=eastwest;" vertex="1" parent="VEC3x4T9xkFiJiI4OAcC-1">
          <mxGeometry y="96.35294117647058" width="370" height="24" as="geometry" />
        </mxCell>
        <mxCell id="VEC3x4T9xkFiJiI4OAcC-6" value="+ICollection&lt;AspNetRoleClaim&gt; AspNetRoleClaims" style="text;strokeColor=none;fillColor=none;align=left;verticalAlign=top;spacingLeft=4;spacingRight=4;overflow=hidden;rotatable=0;points=[[0,0.5],[1,0.5]];portConstraint=eastwest;" vertex="1" parent="VEC3x4T9xkFiJiI4OAcC-1">
          <mxGeometry y="120.35294117647058" width="370" height="24" as="geometry" />
        </mxCell>
        <mxCell id="VEC3x4T9xkFiJiI4OAcC-7" value="+ICollection&lt;AspNetUser&gt; Users" style="text;strokeColor=none;fillColor=none;align=left;verticalAlign=top;spacingLeft=4;spacingRight=4;overflow=hidden;rotatable=0;points=[[0,0.5],[1,0.5]];portConstraint=eastwest;" vertex="1" parent="VEC3x4T9xkFiJiI4OAcC-1">
          <mxGeometry y="144.35294117647058" width="370" height="24" as="geometry" />
        </mxCell>
        <mxCell id="VEC3x4T9xkFiJiI4OAcC-8" value="+ICollection&lt;AspNetUserRole&gt; UserRoles" style="text;strokeColor=none;fillColor=none;align=left;verticalAlign=top;spacingLeft=4;spacingRight=4;overflow=hidden;rotatable=0;points=[[0,0.5],[1,0.5]];portConstraint=eastwest;" vertex="1" parent="VEC3x4T9xkFiJiI4OAcC-1">
          <mxGeometry y="168.35294117647058" width="370" height="24" as="geometry" />
        </mxCell>
        <mxCell id="VEC3x4T9xkFiJiI4OAcC-9" style="line;strokeWidth=1;fillColor=none;align=left;verticalAlign=middle;spacingTop=-1;spacingLeft=3;spacingRight=3;rotatable=0;labelPosition=right;points=[];portConstraint=eastwest;strokeColor=inherit;" vertex="1" parent="VEC3x4T9xkFiJiI4OAcC-1">
          <mxGeometry y="192.35294117647058" width="370" height="12" as="geometry" />
        </mxCell>
        <mxCell id="VEC3x4T9xkFiJiI4OAcC-10" value="AspNetRoleClaim" style="swimlane;fontStyle=1;align=center;verticalAlign=top;childLayout=stackLayout;horizontal=1;startSize=24.923076923076923;horizontalStack=0;resizeParent=1;resizeParentMax=0;resizeLast=0;collapsible=0;marginBottom=0;" vertex="1" parent="1">
          <mxGeometry x="31" y="506" width="154" height="161.9230769230769" as="geometry" />
        </mxCell>
        <mxCell id="VEC3x4T9xkFiJiI4OAcC-11" value="+int Id" style="text;strokeColor=none;fillColor=none;align=left;verticalAlign=top;spacingLeft=4;spacingRight=4;overflow=hidden;rotatable=0;points=[[0,0.5],[1,0.5]];portConstraint=eastwest;" vertex="1" parent="VEC3x4T9xkFiJiI4OAcC-10">
          <mxGeometry y="24.923076923076923" width="154" height="25" as="geometry" />
        </mxCell>
        <mxCell id="VEC3x4T9xkFiJiI4OAcC-12" value="+string RoleId" style="text;strokeColor=none;fillColor=none;align=left;verticalAlign=top;spacingLeft=4;spacingRight=4;overflow=hidden;rotatable=0;points=[[0,0.5],[1,0.5]];portConstraint=eastwest;" vertex="1" parent="VEC3x4T9xkFiJiI4OAcC-10">
          <mxGeometry y="49.92307692307692" width="154" height="25" as="geometry" />
        </mxCell>
        <mxCell id="VEC3x4T9xkFiJiI4OAcC-13" value="+string? ClaimType" style="text;strokeColor=none;fillColor=none;align=left;verticalAlign=top;spacingLeft=4;spacingRight=4;overflow=hidden;rotatable=0;points=[[0,0.5],[1,0.5]];portConstraint=eastwest;" vertex="1" parent="VEC3x4T9xkFiJiI4OAcC-10">
          <mxGeometry y="74.92307692307692" width="154" height="25" as="geometry" />
        </mxCell>
        <mxCell id="VEC3x4T9xkFiJiI4OAcC-14" value="+string? ClaimValue" style="text;strokeColor=none;fillColor=none;align=left;verticalAlign=top;spacingLeft=4;spacingRight=4;overflow=hidden;rotatable=0;points=[[0,0.5],[1,0.5]];portConstraint=eastwest;" vertex="1" parent="VEC3x4T9xkFiJiI4OAcC-10">
          <mxGeometry y="99.92307692307692" width="154" height="25" as="geometry" />
        </mxCell>
        <mxCell id="VEC3x4T9xkFiJiI4OAcC-15" value="+AspNetRole Role" style="text;strokeColor=none;fillColor=none;align=left;verticalAlign=top;spacingLeft=4;spacingRight=4;overflow=hidden;rotatable=0;points=[[0,0.5],[1,0.5]];portConstraint=eastwest;" vertex="1" parent="VEC3x4T9xkFiJiI4OAcC-10">
          <mxGeometry y="124.92307692307692" width="154" height="25" as="geometry" />
        </mxCell>
        <mxCell id="VEC3x4T9xkFiJiI4OAcC-16" style="line;strokeWidth=1;fillColor=none;align=left;verticalAlign=middle;spacingTop=-1;spacingLeft=3;spacingRight=3;rotatable=0;labelPosition=right;points=[];portConstraint=eastwest;strokeColor=inherit;" vertex="1" parent="VEC3x4T9xkFiJiI4OAcC-10">
          <mxGeometry y="149.9230769230769" width="154" height="12" as="geometry" />
        </mxCell>
        <mxCell id="VEC3x4T9xkFiJiI4OAcC-17" value="AspNetUser" style="swimlane;fontStyle=1;align=center;verticalAlign=top;childLayout=stackLayout;horizontal=1;startSize=23.142857142857142;horizontalStack=0;resizeParent=1;resizeParentMax=0;resizeLast=0;collapsible=0;marginBottom=0;" vertex="1" parent="1">
          <mxGeometry x="263" y="745" width="374" height="564.1428571428571" as="geometry" />
        </mxCell>
        <mxCell id="VEC3x4T9xkFiJiI4OAcC-18" value="+string Id" style="text;strokeColor=none;fillColor=none;align=left;verticalAlign=top;spacingLeft=4;spacingRight=4;overflow=hidden;rotatable=0;points=[[0,0.5],[1,0.5]];portConstraint=eastwest;" vertex="1" parent="VEC3x4T9xkFiJiI4OAcC-17">
          <mxGeometry y="23.142857142857142" width="374" height="23" as="geometry" />
        </mxCell>
        <mxCell id="VEC3x4T9xkFiJiI4OAcC-19" value="+string? UserName" style="text;strokeColor=none;fillColor=none;align=left;verticalAlign=top;spacingLeft=4;spacingRight=4;overflow=hidden;rotatable=0;points=[[0,0.5],[1,0.5]];portConstraint=eastwest;" vertex="1" parent="VEC3x4T9xkFiJiI4OAcC-17">
          <mxGeometry y="46.14285714285714" width="374" height="23" as="geometry" />
        </mxCell>
        <mxCell id="VEC3x4T9xkFiJiI4OAcC-20" value="+string? NormalizedUserName" style="text;strokeColor=none;fillColor=none;align=left;verticalAlign=top;spacingLeft=4;spacingRight=4;overflow=hidden;rotatable=0;points=[[0,0.5],[1,0.5]];portConstraint=eastwest;" vertex="1" parent="VEC3x4T9xkFiJiI4OAcC-17">
          <mxGeometry y="69.14285714285714" width="374" height="23" as="geometry" />
        </mxCell>
        <mxCell id="VEC3x4T9xkFiJiI4OAcC-21" value="+string? Email" style="text;strokeColor=none;fillColor=none;align=left;verticalAlign=top;spacingLeft=4;spacingRight=4;overflow=hidden;rotatable=0;points=[[0,0.5],[1,0.5]];portConstraint=eastwest;" vertex="1" parent="VEC3x4T9xkFiJiI4OAcC-17">
          <mxGeometry y="92.14285714285714" width="374" height="23" as="geometry" />
        </mxCell>
        <mxCell id="VEC3x4T9xkFiJiI4OAcC-22" value="+string? NormalizedEmail" style="text;strokeColor=none;fillColor=none;align=left;verticalAlign=top;spacingLeft=4;spacingRight=4;overflow=hidden;rotatable=0;points=[[0,0.5],[1,0.5]];portConstraint=eastwest;" vertex="1" parent="VEC3x4T9xkFiJiI4OAcC-17">
          <mxGeometry y="115.14285714285714" width="374" height="23" as="geometry" />
        </mxCell>
        <mxCell id="VEC3x4T9xkFiJiI4OAcC-23" value="+bool EmailConfirmed" style="text;strokeColor=none;fillColor=none;align=left;verticalAlign=top;spacingLeft=4;spacingRight=4;overflow=hidden;rotatable=0;points=[[0,0.5],[1,0.5]];portConstraint=eastwest;" vertex="1" parent="VEC3x4T9xkFiJiI4OAcC-17">
          <mxGeometry y="138.14285714285714" width="374" height="23" as="geometry" />
        </mxCell>
        <mxCell id="VEC3x4T9xkFiJiI4OAcC-24" value="+string? PasswordHash" style="text;strokeColor=none;fillColor=none;align=left;verticalAlign=top;spacingLeft=4;spacingRight=4;overflow=hidden;rotatable=0;points=[[0,0.5],[1,0.5]];portConstraint=eastwest;" vertex="1" parent="VEC3x4T9xkFiJiI4OAcC-17">
          <mxGeometry y="161.14285714285714" width="374" height="23" as="geometry" />
        </mxCell>
        <mxCell id="VEC3x4T9xkFiJiI4OAcC-25" value="+string? SecurityStamp" style="text;strokeColor=none;fillColor=none;align=left;verticalAlign=top;spacingLeft=4;spacingRight=4;overflow=hidden;rotatable=0;points=[[0,0.5],[1,0.5]];portConstraint=eastwest;" vertex="1" parent="VEC3x4T9xkFiJiI4OAcC-17">
          <mxGeometry y="184.14285714285714" width="374" height="23" as="geometry" />
        </mxCell>
        <mxCell id="VEC3x4T9xkFiJiI4OAcC-26" value="+string? ConcurrencyStamp" style="text;strokeColor=none;fillColor=none;align=left;verticalAlign=top;spacingLeft=4;spacingRight=4;overflow=hidden;rotatable=0;points=[[0,0.5],[1,0.5]];portConstraint=eastwest;" vertex="1" parent="VEC3x4T9xkFiJiI4OAcC-17">
          <mxGeometry y="207.14285714285714" width="374" height="23" as="geometry" />
        </mxCell>
        <mxCell id="VEC3x4T9xkFiJiI4OAcC-27" value="+string? PhoneNumber" style="text;strokeColor=none;fillColor=none;align=left;verticalAlign=top;spacingLeft=4;spacingRight=4;overflow=hidden;rotatable=0;points=[[0,0.5],[1,0.5]];portConstraint=eastwest;" vertex="1" parent="VEC3x4T9xkFiJiI4OAcC-17">
          <mxGeometry y="230.14285714285714" width="374" height="23" as="geometry" />
        </mxCell>
        <mxCell id="VEC3x4T9xkFiJiI4OAcC-28" value="+bool PhoneNumberConfirmed" style="text;strokeColor=none;fillColor=none;align=left;verticalAlign=top;spacingLeft=4;spacingRight=4;overflow=hidden;rotatable=0;points=[[0,0.5],[1,0.5]];portConstraint=eastwest;" vertex="1" parent="VEC3x4T9xkFiJiI4OAcC-17">
          <mxGeometry y="253.14285714285714" width="374" height="23" as="geometry" />
        </mxCell>
        <mxCell id="VEC3x4T9xkFiJiI4OAcC-29" value="+bool TwoFactorEnabled" style="text;strokeColor=none;fillColor=none;align=left;verticalAlign=top;spacingLeft=4;spacingRight=4;overflow=hidden;rotatable=0;points=[[0,0.5],[1,0.5]];portConstraint=eastwest;" vertex="1" parent="VEC3x4T9xkFiJiI4OAcC-17">
          <mxGeometry y="276.1428571428571" width="374" height="23" as="geometry" />
        </mxCell>
        <mxCell id="VEC3x4T9xkFiJiI4OAcC-30" value="+DateTimeOffset? LockoutEnd" style="text;strokeColor=none;fillColor=none;align=left;verticalAlign=top;spacingLeft=4;spacingRight=4;overflow=hidden;rotatable=0;points=[[0,0.5],[1,0.5]];portConstraint=eastwest;" vertex="1" parent="VEC3x4T9xkFiJiI4OAcC-17">
          <mxGeometry y="299.1428571428571" width="374" height="23" as="geometry" />
        </mxCell>
        <mxCell id="VEC3x4T9xkFiJiI4OAcC-31" value="+bool LockoutEnabled" style="text;strokeColor=none;fillColor=none;align=left;verticalAlign=top;spacingLeft=4;spacingRight=4;overflow=hidden;rotatable=0;points=[[0,0.5],[1,0.5]];portConstraint=eastwest;" vertex="1" parent="VEC3x4T9xkFiJiI4OAcC-17">
          <mxGeometry y="322.1428571428571" width="374" height="23" as="geometry" />
        </mxCell>
        <mxCell id="VEC3x4T9xkFiJiI4OAcC-32" value="+int AccessFailedCount" style="text;strokeColor=none;fillColor=none;align=left;verticalAlign=top;spacingLeft=4;spacingRight=4;overflow=hidden;rotatable=0;points=[[0,0.5],[1,0.5]];portConstraint=eastwest;" vertex="1" parent="VEC3x4T9xkFiJiI4OAcC-17">
          <mxGeometry y="345.1428571428571" width="374" height="23" as="geometry" />
        </mxCell>
        <mxCell id="VEC3x4T9xkFiJiI4OAcC-33" value="+ICollection&lt;AspNetUserClaim&gt; AspNetUserClaims" style="text;strokeColor=none;fillColor=none;align=left;verticalAlign=top;spacingLeft=4;spacingRight=4;overflow=hidden;rotatable=0;points=[[0,0.5],[1,0.5]];portConstraint=eastwest;" vertex="1" parent="VEC3x4T9xkFiJiI4OAcC-17">
          <mxGeometry y="368.1428571428571" width="374" height="23" as="geometry" />
        </mxCell>
        <mxCell id="VEC3x4T9xkFiJiI4OAcC-34" value="+ICollection&lt;AspNetUserLogin&gt; AspNetUserLogins" style="text;strokeColor=none;fillColor=none;align=left;verticalAlign=top;spacingLeft=4;spacingRight=4;overflow=hidden;rotatable=0;points=[[0,0.5],[1,0.5]];portConstraint=eastwest;" vertex="1" parent="VEC3x4T9xkFiJiI4OAcC-17">
          <mxGeometry y="391.1428571428571" width="374" height="23" as="geometry" />
        </mxCell>
        <mxCell id="VEC3x4T9xkFiJiI4OAcC-35" value="+ICollection&lt;AspNetUserToken&gt; AspNetUserTokens" style="text;strokeColor=none;fillColor=none;align=left;verticalAlign=top;spacingLeft=4;spacingRight=4;overflow=hidden;rotatable=0;points=[[0,0.5],[1,0.5]];portConstraint=eastwest;" vertex="1" parent="VEC3x4T9xkFiJiI4OAcC-17">
          <mxGeometry y="414.1428571428571" width="374" height="23" as="geometry" />
        </mxCell>
        <mxCell id="VEC3x4T9xkFiJiI4OAcC-36" value="+ICollection&lt;ClientProfile&gt; ClientProfiles" style="text;strokeColor=none;fillColor=none;align=left;verticalAlign=top;spacingLeft=4;spacingRight=4;overflow=hidden;rotatable=0;points=[[0,0.5],[1,0.5]];portConstraint=eastwest;" vertex="1" parent="VEC3x4T9xkFiJiI4OAcC-17">
          <mxGeometry y="437.1428571428571" width="374" height="23" as="geometry" />
        </mxCell>
        <mxCell id="VEC3x4T9xkFiJiI4OAcC-37" value="+ICollection&lt;Place&gt; Places" style="text;strokeColor=none;fillColor=none;align=left;verticalAlign=top;spacingLeft=4;spacingRight=4;overflow=hidden;rotatable=0;points=[[0,0.5],[1,0.5]];portConstraint=eastwest;" vertex="1" parent="VEC3x4T9xkFiJiI4OAcC-17">
          <mxGeometry y="460.1428571428571" width="374" height="23" as="geometry" />
        </mxCell>
        <mxCell id="VEC3x4T9xkFiJiI4OAcC-38" value="+ICollection&lt;UserPlace&gt; UserPlaces" style="text;strokeColor=none;fillColor=none;align=left;verticalAlign=top;spacingLeft=4;spacingRight=4;overflow=hidden;rotatable=0;points=[[0,0.5],[1,0.5]];portConstraint=eastwest;" vertex="1" parent="VEC3x4T9xkFiJiI4OAcC-17">
          <mxGeometry y="483.1428571428571" width="374" height="23" as="geometry" />
        </mxCell>
        <mxCell id="VEC3x4T9xkFiJiI4OAcC-39" value="+ICollection&lt;AspNetRole&gt; Roles" style="text;strokeColor=none;fillColor=none;align=left;verticalAlign=top;spacingLeft=4;spacingRight=4;overflow=hidden;rotatable=0;points=[[0,0.5],[1,0.5]];portConstraint=eastwest;" vertex="1" parent="VEC3x4T9xkFiJiI4OAcC-17">
          <mxGeometry y="506.1428571428571" width="374" height="23" as="geometry" />
        </mxCell>
        <mxCell id="VEC3x4T9xkFiJiI4OAcC-40" value="+ICollection&lt;AspNetUserRole&gt; UserRoles" style="text;strokeColor=none;fillColor=none;align=left;verticalAlign=top;spacingLeft=4;spacingRight=4;overflow=hidden;rotatable=0;points=[[0,0.5],[1,0.5]];portConstraint=eastwest;" vertex="1" parent="VEC3x4T9xkFiJiI4OAcC-17">
          <mxGeometry y="529.1428571428571" width="374" height="23" as="geometry" />
        </mxCell>
        <mxCell id="VEC3x4T9xkFiJiI4OAcC-41" style="line;strokeWidth=1;fillColor=none;align=left;verticalAlign=middle;spacingTop=-1;spacingLeft=3;spacingRight=3;rotatable=0;labelPosition=right;points=[];portConstraint=eastwest;strokeColor=inherit;" vertex="1" parent="VEC3x4T9xkFiJiI4OAcC-17">
          <mxGeometry y="552.1428571428571" width="374" height="12" as="geometry" />
        </mxCell>
        <mxCell id="VEC3x4T9xkFiJiI4OAcC-42" value="AspNetUserClaim" style="swimlane;fontStyle=1;align=center;verticalAlign=top;childLayout=stackLayout;horizontal=1;startSize=24.923076923076923;horizontalStack=0;resizeParent=1;resizeParentMax=0;resizeLast=0;collapsible=0;marginBottom=0;" vertex="1" parent="1">
          <mxGeometry x="75" y="1388" width="154" height="161.9230769230769" as="geometry" />
        </mxCell>
        <mxCell id="VEC3x4T9xkFiJiI4OAcC-43" value="+int Id" style="text;strokeColor=none;fillColor=none;align=left;verticalAlign=top;spacingLeft=4;spacingRight=4;overflow=hidden;rotatable=0;points=[[0,0.5],[1,0.5]];portConstraint=eastwest;" vertex="1" parent="VEC3x4T9xkFiJiI4OAcC-42">
          <mxGeometry y="24.923076923076923" width="154" height="25" as="geometry" />
        </mxCell>
        <mxCell id="VEC3x4T9xkFiJiI4OAcC-44" value="+string UserId" style="text;strokeColor=none;fillColor=none;align=left;verticalAlign=top;spacingLeft=4;spacingRight=4;overflow=hidden;rotatable=0;points=[[0,0.5],[1,0.5]];portConstraint=eastwest;" vertex="1" parent="VEC3x4T9xkFiJiI4OAcC-42">
          <mxGeometry y="49.92307692307692" width="154" height="25" as="geometry" />
        </mxCell>
        <mxCell id="VEC3x4T9xkFiJiI4OAcC-45" value="+string? ClaimType" style="text;strokeColor=none;fillColor=none;align=left;verticalAlign=top;spacingLeft=4;spacingRight=4;overflow=hidden;rotatable=0;points=[[0,0.5],[1,0.5]];portConstraint=eastwest;" vertex="1" parent="VEC3x4T9xkFiJiI4OAcC-42">
          <mxGeometry y="74.92307692307692" width="154" height="25" as="geometry" />
        </mxCell>
        <mxCell id="VEC3x4T9xkFiJiI4OAcC-46" value="+string? ClaimValue" style="text;strokeColor=none;fillColor=none;align=left;verticalAlign=top;spacingLeft=4;spacingRight=4;overflow=hidden;rotatable=0;points=[[0,0.5],[1,0.5]];portConstraint=eastwest;" vertex="1" parent="VEC3x4T9xkFiJiI4OAcC-42">
          <mxGeometry y="99.92307692307692" width="154" height="25" as="geometry" />
        </mxCell>
        <mxCell id="VEC3x4T9xkFiJiI4OAcC-47" value="+AspNetUser User" style="text;strokeColor=none;fillColor=none;align=left;verticalAlign=top;spacingLeft=4;spacingRight=4;overflow=hidden;rotatable=0;points=[[0,0.5],[1,0.5]];portConstraint=eastwest;" vertex="1" parent="VEC3x4T9xkFiJiI4OAcC-42">
          <mxGeometry y="124.92307692307692" width="154" height="25" as="geometry" />
        </mxCell>
        <mxCell id="VEC3x4T9xkFiJiI4OAcC-48" style="line;strokeWidth=1;fillColor=none;align=left;verticalAlign=middle;spacingTop=-1;spacingLeft=3;spacingRight=3;rotatable=0;labelPosition=right;points=[];portConstraint=eastwest;strokeColor=inherit;" vertex="1" parent="VEC3x4T9xkFiJiI4OAcC-42">
          <mxGeometry y="149.9230769230769" width="154" height="12" as="geometry" />
        </mxCell>
        <mxCell id="VEC3x4T9xkFiJiI4OAcC-49" value="AspNetUserLogin" style="swimlane;fontStyle=1;align=center;verticalAlign=top;childLayout=stackLayout;horizontal=1;startSize=24.923076923076923;horizontalStack=0;resizeParent=1;resizeParentMax=0;resizeLast=0;collapsible=0;marginBottom=0;" vertex="1" parent="1">
          <mxGeometry x="279" y="1388" width="225" height="161.9230769230769" as="geometry" />
        </mxCell>
        <mxCell id="VEC3x4T9xkFiJiI4OAcC-50" value="+string LoginProvider" style="text;strokeColor=none;fillColor=none;align=left;verticalAlign=top;spacingLeft=4;spacingRight=4;overflow=hidden;rotatable=0;points=[[0,0.5],[1,0.5]];portConstraint=eastwest;" vertex="1" parent="VEC3x4T9xkFiJiI4OAcC-49">
          <mxGeometry y="24.923076923076923" width="225" height="25" as="geometry" />
        </mxCell>
        <mxCell id="VEC3x4T9xkFiJiI4OAcC-51" value="+string ProviderKey" style="text;strokeColor=none;fillColor=none;align=left;verticalAlign=top;spacingLeft=4;spacingRight=4;overflow=hidden;rotatable=0;points=[[0,0.5],[1,0.5]];portConstraint=eastwest;" vertex="1" parent="VEC3x4T9xkFiJiI4OAcC-49">
          <mxGeometry y="49.92307692307692" width="225" height="25" as="geometry" />
        </mxCell>
        <mxCell id="VEC3x4T9xkFiJiI4OAcC-52" value="+string? ProviderDisplayName" style="text;strokeColor=none;fillColor=none;align=left;verticalAlign=top;spacingLeft=4;spacingRight=4;overflow=hidden;rotatable=0;points=[[0,0.5],[1,0.5]];portConstraint=eastwest;" vertex="1" parent="VEC3x4T9xkFiJiI4OAcC-49">
          <mxGeometry y="74.92307692307692" width="225" height="25" as="geometry" />
        </mxCell>
        <mxCell id="VEC3x4T9xkFiJiI4OAcC-53" value="+string UserId" style="text;strokeColor=none;fillColor=none;align=left;verticalAlign=top;spacingLeft=4;spacingRight=4;overflow=hidden;rotatable=0;points=[[0,0.5],[1,0.5]];portConstraint=eastwest;" vertex="1" parent="VEC3x4T9xkFiJiI4OAcC-49">
          <mxGeometry y="99.92307692307692" width="225" height="25" as="geometry" />
        </mxCell>
        <mxCell id="VEC3x4T9xkFiJiI4OAcC-54" value="+AspNetUser User" style="text;strokeColor=none;fillColor=none;align=left;verticalAlign=top;spacingLeft=4;spacingRight=4;overflow=hidden;rotatable=0;points=[[0,0.5],[1,0.5]];portConstraint=eastwest;" vertex="1" parent="VEC3x4T9xkFiJiI4OAcC-49">
          <mxGeometry y="124.92307692307692" width="225" height="25" as="geometry" />
        </mxCell>
        <mxCell id="VEC3x4T9xkFiJiI4OAcC-55" style="line;strokeWidth=1;fillColor=none;align=left;verticalAlign=middle;spacingTop=-1;spacingLeft=3;spacingRight=3;rotatable=0;labelPosition=right;points=[];portConstraint=eastwest;strokeColor=inherit;" vertex="1" parent="VEC3x4T9xkFiJiI4OAcC-49">
          <mxGeometry y="149.9230769230769" width="225" height="12" as="geometry" />
        </mxCell>
        <mxCell id="VEC3x4T9xkFiJiI4OAcC-56" value="AspNetUserRole" style="swimlane;fontStyle=1;align=center;verticalAlign=top;childLayout=stackLayout;horizontal=1;startSize=25.363636363636363;horizontalStack=0;resizeParent=1;resizeParentMax=0;resizeLast=0;collapsible=0;marginBottom=0;" vertex="1" parent="1">
          <mxGeometry x="379" y="517" width="142" height="138.36363636363637" as="geometry" />
        </mxCell>
        <mxCell id="VEC3x4T9xkFiJiI4OAcC-57" value="+string UserId" style="text;strokeColor=none;fillColor=none;align=left;verticalAlign=top;spacingLeft=4;spacingRight=4;overflow=hidden;rotatable=0;points=[[0,0.5],[1,0.5]];portConstraint=eastwest;" vertex="1" parent="VEC3x4T9xkFiJiI4OAcC-56">
          <mxGeometry y="25.363636363636363" width="142" height="25" as="geometry" />
        </mxCell>
        <mxCell id="VEC3x4T9xkFiJiI4OAcC-58" value="+string RoleId" style="text;strokeColor=none;fillColor=none;align=left;verticalAlign=top;spacingLeft=4;spacingRight=4;overflow=hidden;rotatable=0;points=[[0,0.5],[1,0.5]];portConstraint=eastwest;" vertex="1" parent="VEC3x4T9xkFiJiI4OAcC-56">
          <mxGeometry y="50.36363636363636" width="142" height="25" as="geometry" />
        </mxCell>
        <mxCell id="VEC3x4T9xkFiJiI4OAcC-59" value="+AspNetUser User" style="text;strokeColor=none;fillColor=none;align=left;verticalAlign=top;spacingLeft=4;spacingRight=4;overflow=hidden;rotatable=0;points=[[0,0.5],[1,0.5]];portConstraint=eastwest;" vertex="1" parent="VEC3x4T9xkFiJiI4OAcC-56">
          <mxGeometry y="75.36363636363636" width="142" height="25" as="geometry" />
        </mxCell>
        <mxCell id="VEC3x4T9xkFiJiI4OAcC-60" value="+AspNetRole Role" style="text;strokeColor=none;fillColor=none;align=left;verticalAlign=top;spacingLeft=4;spacingRight=4;overflow=hidden;rotatable=0;points=[[0,0.5],[1,0.5]];portConstraint=eastwest;" vertex="1" parent="VEC3x4T9xkFiJiI4OAcC-56">
          <mxGeometry y="100.36363636363636" width="142" height="25" as="geometry" />
        </mxCell>
        <mxCell id="VEC3x4T9xkFiJiI4OAcC-61" style="line;strokeWidth=1;fillColor=none;align=left;verticalAlign=middle;spacingTop=-1;spacingLeft=3;spacingRight=3;rotatable=0;labelPosition=right;points=[];portConstraint=eastwest;strokeColor=inherit;" vertex="1" parent="VEC3x4T9xkFiJiI4OAcC-56">
          <mxGeometry y="125.36363636363636" width="142" height="13" as="geometry" />
        </mxCell>
        <mxCell id="VEC3x4T9xkFiJiI4OAcC-62" value="AspNetUserToken" style="swimlane;fontStyle=1;align=center;verticalAlign=top;childLayout=stackLayout;horizontal=1;startSize=24.923076923076923;horizontalStack=0;resizeParent=1;resizeParentMax=0;resizeLast=0;collapsible=0;marginBottom=0;" vertex="1" parent="1">
          <mxGeometry x="554" y="1388" width="166" height="161.9230769230769" as="geometry" />
        </mxCell>
        <mxCell id="VEC3x4T9xkFiJiI4OAcC-63" value="+string UserId" style="text;strokeColor=none;fillColor=none;align=left;verticalAlign=top;spacingLeft=4;spacingRight=4;overflow=hidden;rotatable=0;points=[[0,0.5],[1,0.5]];portConstraint=eastwest;" vertex="1" parent="VEC3x4T9xkFiJiI4OAcC-62">
          <mxGeometry y="24.923076923076923" width="166" height="25" as="geometry" />
        </mxCell>
        <mxCell id="VEC3x4T9xkFiJiI4OAcC-64" value="+string LoginProvider" style="text;strokeColor=none;fillColor=none;align=left;verticalAlign=top;spacingLeft=4;spacingRight=4;overflow=hidden;rotatable=0;points=[[0,0.5],[1,0.5]];portConstraint=eastwest;" vertex="1" parent="VEC3x4T9xkFiJiI4OAcC-62">
          <mxGeometry y="49.92307692307692" width="166" height="25" as="geometry" />
        </mxCell>
        <mxCell id="VEC3x4T9xkFiJiI4OAcC-65" value="+string Name" style="text;strokeColor=none;fillColor=none;align=left;verticalAlign=top;spacingLeft=4;spacingRight=4;overflow=hidden;rotatable=0;points=[[0,0.5],[1,0.5]];portConstraint=eastwest;" vertex="1" parent="VEC3x4T9xkFiJiI4OAcC-62">
          <mxGeometry y="74.92307692307692" width="166" height="25" as="geometry" />
        </mxCell>
        <mxCell id="VEC3x4T9xkFiJiI4OAcC-66" value="+string? Value" style="text;strokeColor=none;fillColor=none;align=left;verticalAlign=top;spacingLeft=4;spacingRight=4;overflow=hidden;rotatable=0;points=[[0,0.5],[1,0.5]];portConstraint=eastwest;" vertex="1" parent="VEC3x4T9xkFiJiI4OAcC-62">
          <mxGeometry y="99.92307692307692" width="166" height="25" as="geometry" />
        </mxCell>
        <mxCell id="VEC3x4T9xkFiJiI4OAcC-67" value="+AspNetUser User" style="text;strokeColor=none;fillColor=none;align=left;verticalAlign=top;spacingLeft=4;spacingRight=4;overflow=hidden;rotatable=0;points=[[0,0.5],[1,0.5]];portConstraint=eastwest;" vertex="1" parent="VEC3x4T9xkFiJiI4OAcC-62">
          <mxGeometry y="124.92307692307692" width="166" height="25" as="geometry" />
        </mxCell>
        <mxCell id="VEC3x4T9xkFiJiI4OAcC-68" style="line;strokeWidth=1;fillColor=none;align=left;verticalAlign=middle;spacingTop=-1;spacingLeft=3;spacingRight=3;rotatable=0;labelPosition=right;points=[];portConstraint=eastwest;strokeColor=inherit;" vertex="1" parent="VEC3x4T9xkFiJiI4OAcC-62">
          <mxGeometry y="149.9230769230769" width="166" height="12" as="geometry" />
        </mxCell>
        <mxCell id="VEC3x4T9xkFiJiI4OAcC-69" value="ClientProfile" style="swimlane;fontStyle=1;align=center;verticalAlign=top;childLayout=stackLayout;horizontal=1;startSize=25.363636363636363;horizontalStack=0;resizeParent=1;resizeParentMax=0;resizeLast=0;collapsible=0;marginBottom=0;" vertex="1" parent="1">
          <mxGeometry x="770" y="1399" width="148" height="138.36363636363637" as="geometry" />
        </mxCell>
        <mxCell id="VEC3x4T9xkFiJiI4OAcC-70" value="+int Id" style="text;strokeColor=none;fillColor=none;align=left;verticalAlign=top;spacingLeft=4;spacingRight=4;overflow=hidden;rotatable=0;points=[[0,0.5],[1,0.5]];portConstraint=eastwest;" vertex="1" parent="VEC3x4T9xkFiJiI4OAcC-69">
          <mxGeometry y="25.363636363636363" width="148" height="25" as="geometry" />
        </mxCell>
        <mxCell id="VEC3x4T9xkFiJiI4OAcC-71" value="+string Address" style="text;strokeColor=none;fillColor=none;align=left;verticalAlign=top;spacingLeft=4;spacingRight=4;overflow=hidden;rotatable=0;points=[[0,0.5],[1,0.5]];portConstraint=eastwest;" vertex="1" parent="VEC3x4T9xkFiJiI4OAcC-69">
          <mxGeometry y="50.36363636363636" width="148" height="25" as="geometry" />
        </mxCell>
        <mxCell id="VEC3x4T9xkFiJiI4OAcC-72" value="+string? UserId" style="text;strokeColor=none;fillColor=none;align=left;verticalAlign=top;spacingLeft=4;spacingRight=4;overflow=hidden;rotatable=0;points=[[0,0.5],[1,0.5]];portConstraint=eastwest;" vertex="1" parent="VEC3x4T9xkFiJiI4OAcC-69">
          <mxGeometry y="75.36363636363636" width="148" height="25" as="geometry" />
        </mxCell>
        <mxCell id="VEC3x4T9xkFiJiI4OAcC-73" value="+AspNetUser? User" style="text;strokeColor=none;fillColor=none;align=left;verticalAlign=top;spacingLeft=4;spacingRight=4;overflow=hidden;rotatable=0;points=[[0,0.5],[1,0.5]];portConstraint=eastwest;" vertex="1" parent="VEC3x4T9xkFiJiI4OAcC-69">
          <mxGeometry y="100.36363636363636" width="148" height="25" as="geometry" />
        </mxCell>
        <mxCell id="VEC3x4T9xkFiJiI4OAcC-74" style="line;strokeWidth=1;fillColor=none;align=left;verticalAlign=middle;spacingTop=-1;spacingLeft=3;spacingRight=3;rotatable=0;labelPosition=right;points=[];portConstraint=eastwest;strokeColor=inherit;" vertex="1" parent="VEC3x4T9xkFiJiI4OAcC-69">
          <mxGeometry y="125.36363636363636" width="148" height="13" as="geometry" />
        </mxCell>
        <mxCell id="VEC3x4T9xkFiJiI4OAcC-75" value="Contract" style="swimlane;fontStyle=1;align=center;verticalAlign=top;childLayout=stackLayout;horizontal=1;startSize=24.352941176470587;horizontalStack=0;resizeParent=1;resizeParentMax=0;resizeLast=0;collapsible=0;marginBottom=0;" vertex="1" parent="1">
          <mxGeometry x="1192" y="2146" width="210" height="204.35294117647058" as="geometry" />
        </mxCell>
        <mxCell id="VEC3x4T9xkFiJiI4OAcC-76" value="+int Id" style="text;strokeColor=none;fillColor=none;align=left;verticalAlign=top;spacingLeft=4;spacingRight=4;overflow=hidden;rotatable=0;points=[[0,0.5],[1,0.5]];portConstraint=eastwest;" vertex="1" parent="VEC3x4T9xkFiJiI4OAcC-75">
          <mxGeometry y="24.352941176470587" width="210" height="24" as="geometry" />
        </mxCell>
        <mxCell id="VEC3x4T9xkFiJiI4OAcC-77" value="+int OrganizationId" style="text;strokeColor=none;fillColor=none;align=left;verticalAlign=top;spacingLeft=4;spacingRight=4;overflow=hidden;rotatable=0;points=[[0,0.5],[1,0.5]];portConstraint=eastwest;" vertex="1" parent="VEC3x4T9xkFiJiI4OAcC-75">
          <mxGeometry y="48.35294117647059" width="210" height="24" as="geometry" />
        </mxCell>
        <mxCell id="VEC3x4T9xkFiJiI4OAcC-78" value="+int PlaceId" style="text;strokeColor=none;fillColor=none;align=left;verticalAlign=top;spacingLeft=4;spacingRight=4;overflow=hidden;rotatable=0;points=[[0,0.5],[1,0.5]];portConstraint=eastwest;" vertex="1" parent="VEC3x4T9xkFiJiI4OAcC-75">
          <mxGeometry y="72.35294117647058" width="210" height="24" as="geometry" />
        </mxCell>
        <mxCell id="VEC3x4T9xkFiJiI4OAcC-79" value="+int Dogovor" style="text;strokeColor=none;fillColor=none;align=left;verticalAlign=top;spacingLeft=4;spacingRight=4;overflow=hidden;rotatable=0;points=[[0,0.5],[1,0.5]];portConstraint=eastwest;" vertex="1" parent="VEC3x4T9xkFiJiI4OAcC-75">
          <mxGeometry y="96.35294117647058" width="210" height="24" as="geometry" />
        </mxCell>
        <mxCell id="VEC3x4T9xkFiJiI4OAcC-80" value="+int Limit" style="text;strokeColor=none;fillColor=none;align=left;verticalAlign=top;spacingLeft=4;spacingRight=4;overflow=hidden;rotatable=0;points=[[0,0.5],[1,0.5]];portConstraint=eastwest;" vertex="1" parent="VEC3x4T9xkFiJiI4OAcC-75">
          <mxGeometry y="120.35294117647058" width="210" height="24" as="geometry" />
        </mxCell>
        <mxCell id="VEC3x4T9xkFiJiI4OAcC-81" value="+Place Place" style="text;strokeColor=none;fillColor=none;align=left;verticalAlign=top;spacingLeft=4;spacingRight=4;overflow=hidden;rotatable=0;points=[[0,0.5],[1,0.5]];portConstraint=eastwest;" vertex="1" parent="VEC3x4T9xkFiJiI4OAcC-75">
          <mxGeometry y="144.35294117647058" width="210" height="24" as="geometry" />
        </mxCell>
        <mxCell id="VEC3x4T9xkFiJiI4OAcC-82" value="+Organization Organization" style="text;strokeColor=none;fillColor=none;align=left;verticalAlign=top;spacingLeft=4;spacingRight=4;overflow=hidden;rotatable=0;points=[[0,0.5],[1,0.5]];portConstraint=eastwest;" vertex="1" parent="VEC3x4T9xkFiJiI4OAcC-75">
          <mxGeometry y="168.35294117647058" width="210" height="24" as="geometry" />
        </mxCell>
        <mxCell id="VEC3x4T9xkFiJiI4OAcC-83" style="line;strokeWidth=1;fillColor=none;align=left;verticalAlign=middle;spacingTop=-1;spacingLeft=3;spacingRight=3;rotatable=0;labelPosition=right;points=[];portConstraint=eastwest;strokeColor=inherit;" vertex="1" parent="VEC3x4T9xkFiJiI4OAcC-75">
          <mxGeometry y="192.35294117647058" width="210" height="12" as="geometry" />
        </mxCell>
        <mxCell id="VEC3x4T9xkFiJiI4OAcC-84" value="Equipment" style="swimlane;fontStyle=1;align=center;verticalAlign=top;childLayout=stackLayout;horizontal=1;startSize=24.6;horizontalStack=0;resizeParent=1;resizeParentMax=0;resizeLast=0;collapsible=0;marginBottom=0;" vertex="1" parent="1">
          <mxGeometry x="737" y="2158" width="149" height="186.6" as="geometry" />
        </mxCell>
        <mxCell id="VEC3x4T9xkFiJiI4OAcC-85" value="+int Id" style="text;strokeColor=none;fillColor=none;align=left;verticalAlign=top;spacingLeft=4;spacingRight=4;overflow=hidden;rotatable=0;points=[[0,0.5],[1,0.5]];portConstraint=eastwest;" vertex="1" parent="VEC3x4T9xkFiJiI4OAcC-84">
          <mxGeometry y="24.6" width="149" height="25" as="geometry" />
        </mxCell>
        <mxCell id="VEC3x4T9xkFiJiI4OAcC-86" value="+string ModelEq" style="text;strokeColor=none;fillColor=none;align=left;verticalAlign=top;spacingLeft=4;spacingRight=4;overflow=hidden;rotatable=0;points=[[0,0.5],[1,0.5]];portConstraint=eastwest;" vertex="1" parent="VEC3x4T9xkFiJiI4OAcC-84">
          <mxGeometry y="49.6" width="149" height="25" as="geometry" />
        </mxCell>
        <mxCell id="VEC3x4T9xkFiJiI4OAcC-87" value="+string Description" style="text;strokeColor=none;fillColor=none;align=left;verticalAlign=top;spacingLeft=4;spacingRight=4;overflow=hidden;rotatable=0;points=[[0,0.5],[1,0.5]];portConstraint=eastwest;" vertex="1" parent="VEC3x4T9xkFiJiI4OAcC-84">
          <mxGeometry y="74.6" width="149" height="25" as="geometry" />
        </mxCell>
        <mxCell id="VEC3x4T9xkFiJiI4OAcC-88" value="+int PowerEq" style="text;strokeColor=none;fillColor=none;align=left;verticalAlign=top;spacingLeft=4;spacingRight=4;overflow=hidden;rotatable=0;points=[[0,0.5],[1,0.5]];portConstraint=eastwest;" vertex="1" parent="VEC3x4T9xkFiJiI4OAcC-84">
          <mxGeometry y="99.6" width="149" height="25" as="geometry" />
        </mxCell>
        <mxCell id="VEC3x4T9xkFiJiI4OAcC-89" value="+int PlaceId" style="text;strokeColor=none;fillColor=none;align=left;verticalAlign=top;spacingLeft=4;spacingRight=4;overflow=hidden;rotatable=0;points=[[0,0.5],[1,0.5]];portConstraint=eastwest;" vertex="1" parent="VEC3x4T9xkFiJiI4OAcC-84">
          <mxGeometry y="124.6" width="149" height="25" as="geometry" />
        </mxCell>
        <mxCell id="VEC3x4T9xkFiJiI4OAcC-90" value="+Place Place" style="text;strokeColor=none;fillColor=none;align=left;verticalAlign=top;spacingLeft=4;spacingRight=4;overflow=hidden;rotatable=0;points=[[0,0.5],[1,0.5]];portConstraint=eastwest;" vertex="1" parent="VEC3x4T9xkFiJiI4OAcC-84">
          <mxGeometry y="149.6" width="149" height="25" as="geometry" />
        </mxCell>
        <mxCell id="VEC3x4T9xkFiJiI4OAcC-91" style="line;strokeWidth=1;fillColor=none;align=left;verticalAlign=middle;spacingTop=-1;spacingLeft=3;spacingRight=3;rotatable=0;labelPosition=right;points=[];portConstraint=eastwest;strokeColor=inherit;" vertex="1" parent="VEC3x4T9xkFiJiI4OAcC-84">
          <mxGeometry y="174.6" width="149" height="12" as="geometry" />
        </mxCell>
        <mxCell id="VEC3x4T9xkFiJiI4OAcC-92" value="Indication" style="swimlane;fontStyle=1;align=center;verticalAlign=top;childLayout=stackLayout;horizontal=1;startSize=24.352941176470587;horizontalStack=0;resizeParent=1;resizeParentMax=0;resizeLast=0;collapsible=0;marginBottom=0;" vertex="1" parent="1">
          <mxGeometry x="377" y="2486" width="166" height="204.35294117647058" as="geometry" />
        </mxCell>
        <mxCell id="VEC3x4T9xkFiJiI4OAcC-93" value="+int Id" style="text;strokeColor=none;fillColor=none;align=left;verticalAlign=top;spacingLeft=4;spacingRight=4;overflow=hidden;rotatable=0;points=[[0,0.5],[1,0.5]];portConstraint=eastwest;" vertex="1" parent="VEC3x4T9xkFiJiI4OAcC-92">
          <mxGeometry y="24.352941176470587" width="166" height="24" as="geometry" />
        </mxCell>
        <mxCell id="VEC3x4T9xkFiJiI4OAcC-94" value="+DateTime Month" style="text;strokeColor=none;fillColor=none;align=left;verticalAlign=top;spacingLeft=4;spacingRight=4;overflow=hidden;rotatable=0;points=[[0,0.5],[1,0.5]];portConstraint=eastwest;" vertex="1" parent="VEC3x4T9xkFiJiI4OAcC-92">
          <mxGeometry y="48.35294117647059" width="166" height="24" as="geometry" />
        </mxCell>
        <mxCell id="VEC3x4T9xkFiJiI4OAcC-95" value="+decimal Value" style="text;strokeColor=none;fillColor=none;align=left;verticalAlign=top;spacingLeft=4;spacingRight=4;overflow=hidden;rotatable=0;points=[[0,0.5],[1,0.5]];portConstraint=eastwest;" vertex="1" parent="VEC3x4T9xkFiJiI4OAcC-92">
          <mxGeometry y="72.35294117647058" width="166" height="24" as="geometry" />
        </mxCell>
        <mxCell id="VEC3x4T9xkFiJiI4OAcC-96" value="+double Tarif1" style="text;strokeColor=none;fillColor=none;align=left;verticalAlign=top;spacingLeft=4;spacingRight=4;overflow=hidden;rotatable=0;points=[[0,0.5],[1,0.5]];portConstraint=eastwest;" vertex="1" parent="VEC3x4T9xkFiJiI4OAcC-92">
          <mxGeometry y="96.35294117647058" width="166" height="24" as="geometry" />
        </mxCell>
        <mxCell id="VEC3x4T9xkFiJiI4OAcC-97" value="+bool Archive" style="text;strokeColor=none;fillColor=none;align=left;verticalAlign=top;spacingLeft=4;spacingRight=4;overflow=hidden;rotatable=0;points=[[0,0.5],[1,0.5]];portConstraint=eastwest;" vertex="1" parent="VEC3x4T9xkFiJiI4OAcC-92">
          <mxGeometry y="120.35294117647058" width="166" height="24" as="geometry" />
        </mxCell>
        <mxCell id="VEC3x4T9xkFiJiI4OAcC-98" value="+int SchetchikId" style="text;strokeColor=none;fillColor=none;align=left;verticalAlign=top;spacingLeft=4;spacingRight=4;overflow=hidden;rotatable=0;points=[[0,0.5],[1,0.5]];portConstraint=eastwest;" vertex="1" parent="VEC3x4T9xkFiJiI4OAcC-92">
          <mxGeometry y="144.35294117647058" width="166" height="24" as="geometry" />
        </mxCell>
        <mxCell id="VEC3x4T9xkFiJiI4OAcC-99" value="+Schetchik Schetchik" style="text;strokeColor=none;fillColor=none;align=left;verticalAlign=top;spacingLeft=4;spacingRight=4;overflow=hidden;rotatable=0;points=[[0,0.5],[1,0.5]];portConstraint=eastwest;" vertex="1" parent="VEC3x4T9xkFiJiI4OAcC-92">
          <mxGeometry y="168.35294117647058" width="166" height="24" as="geometry" />
        </mxCell>
        <mxCell id="VEC3x4T9xkFiJiI4OAcC-100" style="line;strokeWidth=1;fillColor=none;align=left;verticalAlign=middle;spacingTop=-1;spacingLeft=3;spacingRight=3;rotatable=0;labelPosition=right;points=[];portConstraint=eastwest;strokeColor=inherit;" vertex="1" parent="VEC3x4T9xkFiJiI4OAcC-92">
          <mxGeometry y="192.35294117647058" width="166" height="12" as="geometry" />
        </mxCell>
        <mxCell id="VEC3x4T9xkFiJiI4OAcC-101" value="PlaceSection" style="swimlane;fontStyle=1;align=center;verticalAlign=top;childLayout=stackLayout;horizontal=1;startSize=23.869565217391305;horizontalStack=0;resizeParent=1;resizeParentMax=0;resizeLast=0;collapsible=0;marginBottom=0;" vertex="1" parent="1">
          <mxGeometry x="937" y="2113" width="206" height="275.8695652173913" as="geometry" />
        </mxCell>
        <mxCell id="VEC3x4T9xkFiJiI4OAcC-102" value="+int Id" style="text;strokeColor=none;fillColor=none;align=left;verticalAlign=top;spacingLeft=4;spacingRight=4;overflow=hidden;rotatable=0;points=[[0,0.5],[1,0.5]];portConstraint=eastwest;" vertex="1" parent="VEC3x4T9xkFiJiI4OAcC-101">
          <mxGeometry y="23.869565217391305" width="206" height="24" as="geometry" />
        </mxCell>
        <mxCell id="VEC3x4T9xkFiJiI4OAcC-103" value="+string PlaceName" style="text;strokeColor=none;fillColor=none;align=left;verticalAlign=top;spacingLeft=4;spacingRight=4;overflow=hidden;rotatable=0;points=[[0,0.5],[1,0.5]];portConstraint=eastwest;" vertex="1" parent="VEC3x4T9xkFiJiI4OAcC-101">
          <mxGeometry y="47.869565217391305" width="206" height="24" as="geometry" />
        </mxCell>
        <mxCell id="VEC3x4T9xkFiJiI4OAcC-104" value="+string AdresSection" style="text;strokeColor=none;fillColor=none;align=left;verticalAlign=top;spacingLeft=4;spacingRight=4;overflow=hidden;rotatable=0;points=[[0,0.5],[1,0.5]];portConstraint=eastwest;" vertex="1" parent="VEC3x4T9xkFiJiI4OAcC-101">
          <mxGeometry y="71.86956521739131" width="206" height="24" as="geometry" />
        </mxCell>
        <mxCell id="VEC3x4T9xkFiJiI4OAcC-105" value="+double AreaSection" style="text;strokeColor=none;fillColor=none;align=left;verticalAlign=top;spacingLeft=4;spacingRight=4;overflow=hidden;rotatable=0;points=[[0,0.5],[1,0.5]];portConstraint=eastwest;" vertex="1" parent="VEC3x4T9xkFiJiI4OAcC-101">
          <mxGeometry y="95.86956521739131" width="206" height="24" as="geometry" />
        </mxCell>
        <mxCell id="VEC3x4T9xkFiJiI4OAcC-106" value="+string Kadastr" style="text;strokeColor=none;fillColor=none;align=left;verticalAlign=top;spacingLeft=4;spacingRight=4;overflow=hidden;rotatable=0;points=[[0,0.5],[1,0.5]];portConstraint=eastwest;" vertex="1" parent="VEC3x4T9xkFiJiI4OAcC-101">
          <mxGeometry y="119.86956521739131" width="206" height="24" as="geometry" />
        </mxCell>
        <mxCell id="VEC3x4T9xkFiJiI4OAcC-107" value="+DateTime DataResh" style="text;strokeColor=none;fillColor=none;align=left;verticalAlign=top;spacingLeft=4;spacingRight=4;overflow=hidden;rotatable=0;points=[[0,0.5],[1,0.5]];portConstraint=eastwest;" vertex="1" parent="VEC3x4T9xkFiJiI4OAcC-101">
          <mxGeometry y="143.8695652173913" width="206" height="24" as="geometry" />
        </mxCell>
        <mxCell id="VEC3x4T9xkFiJiI4OAcC-108" value="+string TypeArenda" style="text;strokeColor=none;fillColor=none;align=left;verticalAlign=top;spacingLeft=4;spacingRight=4;overflow=hidden;rotatable=0;points=[[0,0.5],[1,0.5]];portConstraint=eastwest;" vertex="1" parent="VEC3x4T9xkFiJiI4OAcC-101">
          <mxGeometry y="167.8695652173913" width="206" height="24" as="geometry" />
        </mxCell>
        <mxCell id="VEC3x4T9xkFiJiI4OAcC-109" value="+string Certificate" style="text;strokeColor=none;fillColor=none;align=left;verticalAlign=top;spacingLeft=4;spacingRight=4;overflow=hidden;rotatable=0;points=[[0,0.5],[1,0.5]];portConstraint=eastwest;" vertex="1" parent="VEC3x4T9xkFiJiI4OAcC-101">
          <mxGeometry y="191.8695652173913" width="206" height="24" as="geometry" />
        </mxCell>
        <mxCell id="VEC3x4T9xkFiJiI4OAcC-110" value="+DateTime DateArenda" style="text;strokeColor=none;fillColor=none;align=left;verticalAlign=top;spacingLeft=4;spacingRight=4;overflow=hidden;rotatable=0;points=[[0,0.5],[1,0.5]];portConstraint=eastwest;" vertex="1" parent="VEC3x4T9xkFiJiI4OAcC-101">
          <mxGeometry y="215.8695652173913" width="206" height="24" as="geometry" />
        </mxCell>
        <mxCell id="VEC3x4T9xkFiJiI4OAcC-111" value="+ICollection&lt;Place&gt; Places" style="text;strokeColor=none;fillColor=none;align=left;verticalAlign=top;spacingLeft=4;spacingRight=4;overflow=hidden;rotatable=0;points=[[0,0.5],[1,0.5]];portConstraint=eastwest;" vertex="1" parent="VEC3x4T9xkFiJiI4OAcC-101">
          <mxGeometry y="239.8695652173913" width="206" height="24" as="geometry" />
        </mxCell>
        <mxCell id="VEC3x4T9xkFiJiI4OAcC-112" style="line;strokeWidth=1;fillColor=none;align=left;verticalAlign=middle;spacingTop=-1;spacingLeft=3;spacingRight=3;rotatable=0;labelPosition=right;points=[];portConstraint=eastwest;strokeColor=inherit;" vertex="1" parent="VEC3x4T9xkFiJiI4OAcC-101">
          <mxGeometry y="263.8695652173913" width="206" height="12" as="geometry" />
        </mxCell>
        <mxCell id="VEC3x4T9xkFiJiI4OAcC-113" value="MeasureType" style="swimlane;fontStyle=1;align=center;verticalAlign=top;childLayout=stackLayout;horizontal=1;startSize=26;horizontalStack=0;resizeParent=1;resizeParentMax=0;resizeLast=0;collapsible=0;marginBottom=0;" vertex="1" parent="1">
          <mxGeometry x="723" y="2531" width="266" height="117" as="geometry" />
        </mxCell>
        <mxCell id="VEC3x4T9xkFiJiI4OAcC-114" value="+int Id" style="text;strokeColor=none;fillColor=none;align=left;verticalAlign=top;spacingLeft=4;spacingRight=4;overflow=hidden;rotatable=0;points=[[0,0.5],[1,0.5]];portConstraint=eastwest;" vertex="1" parent="VEC3x4T9xkFiJiI4OAcC-113">
          <mxGeometry y="26" width="266" height="26" as="geometry" />
        </mxCell>
        <mxCell id="VEC3x4T9xkFiJiI4OAcC-115" value="+string Name" style="text;strokeColor=none;fillColor=none;align=left;verticalAlign=top;spacingLeft=4;spacingRight=4;overflow=hidden;rotatable=0;points=[[0,0.5],[1,0.5]];portConstraint=eastwest;" vertex="1" parent="VEC3x4T9xkFiJiI4OAcC-113">
          <mxGeometry y="52" width="266" height="26" as="geometry" />
        </mxCell>
        <mxCell id="VEC3x4T9xkFiJiI4OAcC-116" value="+ICollection&lt;Schetchik&gt; Schetchiks" style="text;strokeColor=none;fillColor=none;align=left;verticalAlign=top;spacingLeft=4;spacingRight=4;overflow=hidden;rotatable=0;points=[[0,0.5],[1,0.5]];portConstraint=eastwest;" vertex="1" parent="VEC3x4T9xkFiJiI4OAcC-113">
          <mxGeometry y="78" width="266" height="26" as="geometry" />
        </mxCell>
        <mxCell id="VEC3x4T9xkFiJiI4OAcC-117" style="line;strokeWidth=1;fillColor=none;align=left;verticalAlign=middle;spacingTop=-1;spacingLeft=3;spacingRight=3;rotatable=0;labelPosition=right;points=[];portConstraint=eastwest;strokeColor=inherit;" vertex="1" parent="VEC3x4T9xkFiJiI4OAcC-113">
          <mxGeometry y="104" width="266" height="13" as="geometry" />
        </mxCell>
        <mxCell id="VEC3x4T9xkFiJiI4OAcC-118" value="Organization" style="swimlane;fontStyle=1;align=center;verticalAlign=top;childLayout=stackLayout;horizontal=1;startSize=24.923076923076923;horizontalStack=0;resizeParent=1;resizeParentMax=0;resizeLast=0;collapsible=0;marginBottom=0;" vertex="1" parent="1">
          <mxGeometry x="1171" y="2509" width="253" height="161.9230769230769" as="geometry" />
        </mxCell>
        <mxCell id="VEC3x4T9xkFiJiI4OAcC-119" value="+int Id" style="text;strokeColor=none;fillColor=none;align=left;verticalAlign=top;spacingLeft=4;spacingRight=4;overflow=hidden;rotatable=0;points=[[0,0.5],[1,0.5]];portConstraint=eastwest;" vertex="1" parent="VEC3x4T9xkFiJiI4OAcC-118">
          <mxGeometry y="24.923076923076923" width="253" height="25" as="geometry" />
        </mxCell>
        <mxCell id="VEC3x4T9xkFiJiI4OAcC-120" value="+string Name" style="text;strokeColor=none;fillColor=none;align=left;verticalAlign=top;spacingLeft=4;spacingRight=4;overflow=hidden;rotatable=0;points=[[0,0.5],[1,0.5]];portConstraint=eastwest;" vertex="1" parent="VEC3x4T9xkFiJiI4OAcC-118">
          <mxGeometry y="49.92307692307692" width="253" height="25" as="geometry" />
        </mxCell>
        <mxCell id="VEC3x4T9xkFiJiI4OAcC-121" value="+int Telefon" style="text;strokeColor=none;fillColor=none;align=left;verticalAlign=top;spacingLeft=4;spacingRight=4;overflow=hidden;rotatable=0;points=[[0,0.5],[1,0.5]];portConstraint=eastwest;" vertex="1" parent="VEC3x4T9xkFiJiI4OAcC-118">
          <mxGeometry y="74.92307692307692" width="253" height="25" as="geometry" />
        </mxCell>
        <mxCell id="VEC3x4T9xkFiJiI4OAcC-122" value="+string Email" style="text;strokeColor=none;fillColor=none;align=left;verticalAlign=top;spacingLeft=4;spacingRight=4;overflow=hidden;rotatable=0;points=[[0,0.5],[1,0.5]];portConstraint=eastwest;" vertex="1" parent="VEC3x4T9xkFiJiI4OAcC-118">
          <mxGeometry y="99.92307692307692" width="253" height="25" as="geometry" />
        </mxCell>
        <mxCell id="VEC3x4T9xkFiJiI4OAcC-123" value="+ICollection&lt;Contract&gt; Contracts" style="text;strokeColor=none;fillColor=none;align=left;verticalAlign=top;spacingLeft=4;spacingRight=4;overflow=hidden;rotatable=0;points=[[0,0.5],[1,0.5]];portConstraint=eastwest;" vertex="1" parent="VEC3x4T9xkFiJiI4OAcC-118">
          <mxGeometry y="124.92307692307692" width="253" height="25" as="geometry" />
        </mxCell>
        <mxCell id="VEC3x4T9xkFiJiI4OAcC-124" style="line;strokeWidth=1;fillColor=none;align=left;verticalAlign=middle;spacingTop=-1;spacingLeft=3;spacingRight=3;rotatable=0;labelPosition=right;points=[];portConstraint=eastwest;strokeColor=inherit;" vertex="1" parent="VEC3x4T9xkFiJiI4OAcC-118">
          <mxGeometry y="149.9230769230769" width="253" height="12" as="geometry" />
        </mxCell>
        <mxCell id="VEC3x4T9xkFiJiI4OAcC-125" value="Place" style="swimlane;fontStyle=1;align=center;verticalAlign=top;childLayout=stackLayout;horizontal=1;startSize=23.454545454545453;horizontalStack=0;resizeParent=1;resizeParentMax=0;resizeLast=0;collapsible=0;marginBottom=0;" vertex="1" parent="1">
          <mxGeometry x="898" y="1627" width="282" height="380.45454545454544" as="geometry" />
        </mxCell>
        <mxCell id="VEC3x4T9xkFiJiI4OAcC-126" value="+int Id" style="text;strokeColor=none;fillColor=none;align=left;verticalAlign=top;spacingLeft=4;spacingRight=4;overflow=hidden;rotatable=0;points=[[0,0.5],[1,0.5]];portConstraint=eastwest;" vertex="1" parent="VEC3x4T9xkFiJiI4OAcC-125">
          <mxGeometry y="23.454545454545453" width="282" height="23" as="geometry" />
        </mxCell>
        <mxCell id="VEC3x4T9xkFiJiI4OAcC-127" value="+string Name" style="text;strokeColor=none;fillColor=none;align=left;verticalAlign=top;spacingLeft=4;spacingRight=4;overflow=hidden;rotatable=0;points=[[0,0.5],[1,0.5]];portConstraint=eastwest;" vertex="1" parent="VEC3x4T9xkFiJiI4OAcC-125">
          <mxGeometry y="46.45454545454545" width="282" height="23" as="geometry" />
        </mxCell>
        <mxCell id="VEC3x4T9xkFiJiI4OAcC-128" value="+string? ModelPlace" style="text;strokeColor=none;fillColor=none;align=left;verticalAlign=top;spacingLeft=4;spacingRight=4;overflow=hidden;rotatable=0;points=[[0,0.5],[1,0.5]];portConstraint=eastwest;" vertex="1" parent="VEC3x4T9xkFiJiI4OAcC-125">
          <mxGeometry y="69.45454545454545" width="282" height="23" as="geometry" />
        </mxCell>
        <mxCell id="VEC3x4T9xkFiJiI4OAcC-129" value="+DateTime? Arenda" style="text;strokeColor=none;fillColor=none;align=left;verticalAlign=top;spacingLeft=4;spacingRight=4;overflow=hidden;rotatable=0;points=[[0,0.5],[1,0.5]];portConstraint=eastwest;" vertex="1" parent="VEC3x4T9xkFiJiI4OAcC-125">
          <mxGeometry y="92.45454545454545" width="282" height="23" as="geometry" />
        </mxCell>
        <mxCell id="VEC3x4T9xkFiJiI4OAcC-130" value="+string? Address" style="text;strokeColor=none;fillColor=none;align=left;verticalAlign=top;spacingLeft=4;spacingRight=4;overflow=hidden;rotatable=0;points=[[0,0.5],[1,0.5]];portConstraint=eastwest;" vertex="1" parent="VEC3x4T9xkFiJiI4OAcC-125">
          <mxGeometry y="115.45454545454545" width="282" height="23" as="geometry" />
        </mxCell>
        <mxCell id="VEC3x4T9xkFiJiI4OAcC-131" value="+double Area" style="text;strokeColor=none;fillColor=none;align=left;verticalAlign=top;spacingLeft=4;spacingRight=4;overflow=hidden;rotatable=0;points=[[0,0.5],[1,0.5]];portConstraint=eastwest;" vertex="1" parent="VEC3x4T9xkFiJiI4OAcC-125">
          <mxGeometry y="138.45454545454544" width="282" height="23" as="geometry" />
        </mxCell>
        <mxCell id="VEC3x4T9xkFiJiI4OAcC-132" value="+int? TownId" style="text;strokeColor=none;fillColor=none;align=left;verticalAlign=top;spacingLeft=4;spacingRight=4;overflow=hidden;rotatable=0;points=[[0,0.5],[1,0.5]];portConstraint=eastwest;" vertex="1" parent="VEC3x4T9xkFiJiI4OAcC-125">
          <mxGeometry y="161.45454545454544" width="282" height="23" as="geometry" />
        </mxCell>
        <mxCell id="VEC3x4T9xkFiJiI4OAcC-133" value="+int? PlaceSectionId" style="text;strokeColor=none;fillColor=none;align=left;verticalAlign=top;spacingLeft=4;spacingRight=4;overflow=hidden;rotatable=0;points=[[0,0.5],[1,0.5]];portConstraint=eastwest;" vertex="1" parent="VEC3x4T9xkFiJiI4OAcC-125">
          <mxGeometry y="184.45454545454544" width="282" height="23" as="geometry" />
        </mxCell>
        <mxCell id="VEC3x4T9xkFiJiI4OAcC-134" value="+PlaceSection? PlaceSection" style="text;strokeColor=none;fillColor=none;align=left;verticalAlign=top;spacingLeft=4;spacingRight=4;overflow=hidden;rotatable=0;points=[[0,0.5],[1,0.5]];portConstraint=eastwest;" vertex="1" parent="VEC3x4T9xkFiJiI4OAcC-125">
          <mxGeometry y="207.45454545454544" width="282" height="23" as="geometry" />
        </mxCell>
        <mxCell id="VEC3x4T9xkFiJiI4OAcC-135" value="+Town? Town" style="text;strokeColor=none;fillColor=none;align=left;verticalAlign=top;spacingLeft=4;spacingRight=4;overflow=hidden;rotatable=0;points=[[0,0.5],[1,0.5]];portConstraint=eastwest;" vertex="1" parent="VEC3x4T9xkFiJiI4OAcC-125">
          <mxGeometry y="230.45454545454544" width="282" height="23" as="geometry" />
        </mxCell>
        <mxCell id="VEC3x4T9xkFiJiI4OAcC-136" value="+ICollection&lt;Equipment&gt; Equipments" style="text;strokeColor=none;fillColor=none;align=left;verticalAlign=top;spacingLeft=4;spacingRight=4;overflow=hidden;rotatable=0;points=[[0,0.5],[1,0.5]];portConstraint=eastwest;" vertex="1" parent="VEC3x4T9xkFiJiI4OAcC-125">
          <mxGeometry y="253.45454545454544" width="282" height="23" as="geometry" />
        </mxCell>
        <mxCell id="VEC3x4T9xkFiJiI4OAcC-137" value="+ICollection&lt;Schetchik&gt; Schetchiks" style="text;strokeColor=none;fillColor=none;align=left;verticalAlign=top;spacingLeft=4;spacingRight=4;overflow=hidden;rotatable=0;points=[[0,0.5],[1,0.5]];portConstraint=eastwest;" vertex="1" parent="VEC3x4T9xkFiJiI4OAcC-125">
          <mxGeometry y="276.45454545454544" width="282" height="23" as="geometry" />
        </mxCell>
        <mxCell id="VEC3x4T9xkFiJiI4OAcC-138" value="+ICollection&lt;UserPlace&gt; UserPlaces" style="text;strokeColor=none;fillColor=none;align=left;verticalAlign=top;spacingLeft=4;spacingRight=4;overflow=hidden;rotatable=0;points=[[0,0.5],[1,0.5]];portConstraint=eastwest;" vertex="1" parent="VEC3x4T9xkFiJiI4OAcC-125">
          <mxGeometry y="299.45454545454544" width="282" height="23" as="geometry" />
        </mxCell>
        <mxCell id="VEC3x4T9xkFiJiI4OAcC-139" value="+ICollection&lt;Contract&gt; Contracts" style="text;strokeColor=none;fillColor=none;align=left;verticalAlign=top;spacingLeft=4;spacingRight=4;overflow=hidden;rotatable=0;points=[[0,0.5],[1,0.5]];portConstraint=eastwest;" vertex="1" parent="VEC3x4T9xkFiJiI4OAcC-125">
          <mxGeometry y="322.45454545454544" width="282" height="23" as="geometry" />
        </mxCell>
        <mxCell id="VEC3x4T9xkFiJiI4OAcC-140" value="+ICollection&lt;AspNetUser&gt; Users" style="text;strokeColor=none;fillColor=none;align=left;verticalAlign=top;spacingLeft=4;spacingRight=4;overflow=hidden;rotatable=0;points=[[0,0.5],[1,0.5]];portConstraint=eastwest;" vertex="1" parent="VEC3x4T9xkFiJiI4OAcC-125">
          <mxGeometry y="345.45454545454544" width="282" height="23" as="geometry" />
        </mxCell>
        <mxCell id="VEC3x4T9xkFiJiI4OAcC-141" style="line;strokeWidth=1;fillColor=none;align=left;verticalAlign=middle;spacingTop=-1;spacingLeft=3;spacingRight=3;rotatable=0;labelPosition=right;points=[];portConstraint=eastwest;strokeColor=inherit;" vertex="1" parent="VEC3x4T9xkFiJiI4OAcC-125">
          <mxGeometry y="368.45454545454544" width="282" height="12" as="geometry" />
        </mxCell>
        <mxCell id="VEC3x4T9xkFiJiI4OAcC-142" value="Schetchik" style="swimlane;fontStyle=1;align=center;verticalAlign=top;childLayout=stackLayout;horizontal=1;startSize=23.666666666666668;horizontalStack=0;resizeParent=1;resizeParentMax=0;resizeLast=0;collapsible=0;marginBottom=0;" vertex="1" parent="1">
          <mxGeometry x="416" y="2090" width="271" height="323.6666666666667" as="geometry" />
        </mxCell>
        <mxCell id="VEC3x4T9xkFiJiI4OAcC-143" value="+int Id" style="text;strokeColor=none;fillColor=none;align=left;verticalAlign=top;spacingLeft=4;spacingRight=4;overflow=hidden;rotatable=0;points=[[0,0.5],[1,0.5]];portConstraint=eastwest;" vertex="1" parent="VEC3x4T9xkFiJiI4OAcC-142">
          <mxGeometry y="23.666666666666668" width="271" height="24" as="geometry" />
        </mxCell>
        <mxCell id="VEC3x4T9xkFiJiI4OAcC-144" value="+string NomerSchetchika" style="text;strokeColor=none;fillColor=none;align=left;verticalAlign=top;spacingLeft=4;spacingRight=4;overflow=hidden;rotatable=0;points=[[0,0.5],[1,0.5]];portConstraint=eastwest;" vertex="1" parent="VEC3x4T9xkFiJiI4OAcC-142">
          <mxGeometry y="47.66666666666667" width="271" height="24" as="geometry" />
        </mxCell>
        <mxCell id="VEC3x4T9xkFiJiI4OAcC-145" value="+string ModelSchetchika" style="text;strokeColor=none;fillColor=none;align=left;verticalAlign=top;spacingLeft=4;spacingRight=4;overflow=hidden;rotatable=0;points=[[0,0.5],[1,0.5]];portConstraint=eastwest;" vertex="1" parent="VEC3x4T9xkFiJiI4OAcC-142">
          <mxGeometry y="71.66666666666667" width="271" height="24" as="geometry" />
        </mxCell>
        <mxCell id="VEC3x4T9xkFiJiI4OAcC-146" value="+bool TexUchet" style="text;strokeColor=none;fillColor=none;align=left;verticalAlign=top;spacingLeft=4;spacingRight=4;overflow=hidden;rotatable=0;points=[[0,0.5],[1,0.5]];portConstraint=eastwest;" vertex="1" parent="VEC3x4T9xkFiJiI4OAcC-142">
          <mxGeometry y="95.66666666666667" width="271" height="24" as="geometry" />
        </mxCell>
        <mxCell id="VEC3x4T9xkFiJiI4OAcC-147" value="+bool TwoTarif" style="text;strokeColor=none;fillColor=none;align=left;verticalAlign=top;spacingLeft=4;spacingRight=4;overflow=hidden;rotatable=0;points=[[0,0.5],[1,0.5]];portConstraint=eastwest;" vertex="1" parent="VEC3x4T9xkFiJiI4OAcC-142">
          <mxGeometry y="119.66666666666667" width="271" height="24" as="geometry" />
        </mxCell>
        <mxCell id="VEC3x4T9xkFiJiI4OAcC-148" value="+DateTime? Poverka" style="text;strokeColor=none;fillColor=none;align=left;verticalAlign=top;spacingLeft=4;spacingRight=4;overflow=hidden;rotatable=0;points=[[0,0.5],[1,0.5]];portConstraint=eastwest;" vertex="1" parent="VEC3x4T9xkFiJiI4OAcC-142">
          <mxGeometry y="143.66666666666669" width="271" height="24" as="geometry" />
        </mxCell>
        <mxCell id="VEC3x4T9xkFiJiI4OAcC-149" value="+int Poteri" style="text;strokeColor=none;fillColor=none;align=left;verticalAlign=top;spacingLeft=4;spacingRight=4;overflow=hidden;rotatable=0;points=[[0,0.5],[1,0.5]];portConstraint=eastwest;" vertex="1" parent="VEC3x4T9xkFiJiI4OAcC-142">
          <mxGeometry y="167.66666666666669" width="271" height="24" as="geometry" />
        </mxCell>
        <mxCell id="VEC3x4T9xkFiJiI4OAcC-150" value="+int? PlaceId" style="text;strokeColor=none;fillColor=none;align=left;verticalAlign=top;spacingLeft=4;spacingRight=4;overflow=hidden;rotatable=0;points=[[0,0.5],[1,0.5]];portConstraint=eastwest;" vertex="1" parent="VEC3x4T9xkFiJiI4OAcC-142">
          <mxGeometry y="191.66666666666669" width="271" height="24" as="geometry" />
        </mxCell>
        <mxCell id="VEC3x4T9xkFiJiI4OAcC-151" value="+int MeasureTypeId" style="text;strokeColor=none;fillColor=none;align=left;verticalAlign=top;spacingLeft=4;spacingRight=4;overflow=hidden;rotatable=0;points=[[0,0.5],[1,0.5]];portConstraint=eastwest;" vertex="1" parent="VEC3x4T9xkFiJiI4OAcC-142">
          <mxGeometry y="215.66666666666669" width="271" height="24" as="geometry" />
        </mxCell>
        <mxCell id="VEC3x4T9xkFiJiI4OAcC-152" value="+ICollection&lt;Indication&gt; Indications" style="text;strokeColor=none;fillColor=none;align=left;verticalAlign=top;spacingLeft=4;spacingRight=4;overflow=hidden;rotatable=0;points=[[0,0.5],[1,0.5]];portConstraint=eastwest;" vertex="1" parent="VEC3x4T9xkFiJiI4OAcC-142">
          <mxGeometry y="239.66666666666669" width="271" height="24" as="geometry" />
        </mxCell>
        <mxCell id="VEC3x4T9xkFiJiI4OAcC-153" value="+Place? Place" style="text;strokeColor=none;fillColor=none;align=left;verticalAlign=top;spacingLeft=4;spacingRight=4;overflow=hidden;rotatable=0;points=[[0,0.5],[1,0.5]];portConstraint=eastwest;" vertex="1" parent="VEC3x4T9xkFiJiI4OAcC-142">
          <mxGeometry y="263.6666666666667" width="271" height="24" as="geometry" />
        </mxCell>
        <mxCell id="VEC3x4T9xkFiJiI4OAcC-154" value="+MeasureType MeasureType" style="text;strokeColor=none;fillColor=none;align=left;verticalAlign=top;spacingLeft=4;spacingRight=4;overflow=hidden;rotatable=0;points=[[0,0.5],[1,0.5]];portConstraint=eastwest;" vertex="1" parent="VEC3x4T9xkFiJiI4OAcC-142">
          <mxGeometry y="287.6666666666667" width="271" height="24" as="geometry" />
        </mxCell>
        <mxCell id="VEC3x4T9xkFiJiI4OAcC-155" style="line;strokeWidth=1;fillColor=none;align=left;verticalAlign=middle;spacingTop=-1;spacingLeft=3;spacingRight=3;rotatable=0;labelPosition=right;points=[];portConstraint=eastwest;strokeColor=inherit;" vertex="1" parent="VEC3x4T9xkFiJiI4OAcC-142">
          <mxGeometry y="311.6666666666667" width="271" height="12" as="geometry" />
        </mxCell>
        <mxCell id="VEC3x4T9xkFiJiI4OAcC-156" value="Town" style="swimlane;fontStyle=1;align=center;verticalAlign=top;childLayout=stackLayout;horizontal=1;startSize=26;horizontalStack=0;resizeParent=1;resizeParentMax=0;resizeLast=0;collapsible=0;marginBottom=0;" vertex="1" parent="1">
          <mxGeometry x="1453" y="2191" width="206" height="117" as="geometry" />
        </mxCell>
        <mxCell id="VEC3x4T9xkFiJiI4OAcC-157" value="+int Id" style="text;strokeColor=none;fillColor=none;align=left;verticalAlign=top;spacingLeft=4;spacingRight=4;overflow=hidden;rotatable=0;points=[[0,0.5],[1,0.5]];portConstraint=eastwest;" vertex="1" parent="VEC3x4T9xkFiJiI4OAcC-156">
          <mxGeometry y="26" width="206" height="26" as="geometry" />
        </mxCell>
        <mxCell id="VEC3x4T9xkFiJiI4OAcC-158" value="+string Name" style="text;strokeColor=none;fillColor=none;align=left;verticalAlign=top;spacingLeft=4;spacingRight=4;overflow=hidden;rotatable=0;points=[[0,0.5],[1,0.5]];portConstraint=eastwest;" vertex="1" parent="VEC3x4T9xkFiJiI4OAcC-156">
          <mxGeometry y="52" width="206" height="26" as="geometry" />
        </mxCell>
        <mxCell id="VEC3x4T9xkFiJiI4OAcC-159" value="+ICollection&lt;Place&gt; Places" style="text;strokeColor=none;fillColor=none;align=left;verticalAlign=top;spacingLeft=4;spacingRight=4;overflow=hidden;rotatable=0;points=[[0,0.5],[1,0.5]];portConstraint=eastwest;" vertex="1" parent="VEC3x4T9xkFiJiI4OAcC-156">
          <mxGeometry y="78" width="206" height="26" as="geometry" />
        </mxCell>
        <mxCell id="VEC3x4T9xkFiJiI4OAcC-160" style="line;strokeWidth=1;fillColor=none;align=left;verticalAlign=middle;spacingTop=-1;spacingLeft=3;spacingRight=3;rotatable=0;labelPosition=right;points=[];portConstraint=eastwest;strokeColor=inherit;" vertex="1" parent="VEC3x4T9xkFiJiI4OAcC-156">
          <mxGeometry y="104" width="206" height="13" as="geometry" />
        </mxCell>
        <mxCell id="VEC3x4T9xkFiJiI4OAcC-161" value="UserPlace" style="swimlane;fontStyle=1;align=center;verticalAlign=top;childLayout=stackLayout;horizontal=1;startSize=25.363636363636363;horizontalStack=0;resizeParent=1;resizeParentMax=0;resizeLast=0;collapsible=0;marginBottom=0;" vertex="1" parent="1">
          <mxGeometry x="968" y="1399" width="142" height="138.36363636363637" as="geometry" />
        </mxCell>
        <mxCell id="VEC3x4T9xkFiJiI4OAcC-162" value="+string UserId" style="text;strokeColor=none;fillColor=none;align=left;verticalAlign=top;spacingLeft=4;spacingRight=4;overflow=hidden;rotatable=0;points=[[0,0.5],[1,0.5]];portConstraint=eastwest;" vertex="1" parent="VEC3x4T9xkFiJiI4OAcC-161">
          <mxGeometry y="25.363636363636363" width="142" height="25" as="geometry" />
        </mxCell>
        <mxCell id="VEC3x4T9xkFiJiI4OAcC-163" value="+int PlaceId" style="text;strokeColor=none;fillColor=none;align=left;verticalAlign=top;spacingLeft=4;spacingRight=4;overflow=hidden;rotatable=0;points=[[0,0.5],[1,0.5]];portConstraint=eastwest;" vertex="1" parent="VEC3x4T9xkFiJiI4OAcC-161">
          <mxGeometry y="50.36363636363636" width="142" height="25" as="geometry" />
        </mxCell>
        <mxCell id="VEC3x4T9xkFiJiI4OAcC-164" value="+AspNetUser User" style="text;strokeColor=none;fillColor=none;align=left;verticalAlign=top;spacingLeft=4;spacingRight=4;overflow=hidden;rotatable=0;points=[[0,0.5],[1,0.5]];portConstraint=eastwest;" vertex="1" parent="VEC3x4T9xkFiJiI4OAcC-161">
          <mxGeometry y="75.36363636363636" width="142" height="25" as="geometry" />
        </mxCell>
        <mxCell id="VEC3x4T9xkFiJiI4OAcC-165" value="+Place Place" style="text;strokeColor=none;fillColor=none;align=left;verticalAlign=top;spacingLeft=4;spacingRight=4;overflow=hidden;rotatable=0;points=[[0,0.5],[1,0.5]];portConstraint=eastwest;" vertex="1" parent="VEC3x4T9xkFiJiI4OAcC-161">
          <mxGeometry y="100.36363636363636" width="142" height="25" as="geometry" />
        </mxCell>
        <mxCell id="VEC3x4T9xkFiJiI4OAcC-166" style="line;strokeWidth=1;fillColor=none;align=left;verticalAlign=middle;spacingTop=-1;spacingLeft=3;spacingRight=3;rotatable=0;labelPosition=right;points=[];portConstraint=eastwest;strokeColor=inherit;" vertex="1" parent="VEC3x4T9xkFiJiI4OAcC-161">
          <mxGeometry y="125.36363636363636" width="142" height="13" as="geometry" />
        </mxCell>
        <mxCell id="VEC3x4T9xkFiJiI4OAcC-167" value="FullIndicationModel" style="swimlane;fontStyle=1;align=center;verticalAlign=top;childLayout=stackLayout;horizontal=1;startSize=24.6;horizontalStack=0;resizeParent=1;resizeParentMax=0;resizeLast=0;collapsible=0;marginBottom=0;" vertex="1" parent="1">
          <mxGeometry x="440" y="133" width="171" height="186.6" as="geometry" />
        </mxCell>
        <mxCell id="VEC3x4T9xkFiJiI4OAcC-168" value="+int PlaceId" style="text;strokeColor=none;fillColor=none;align=left;verticalAlign=top;spacingLeft=4;spacingRight=4;overflow=hidden;rotatable=0;points=[[0,0.5],[1,0.5]];portConstraint=eastwest;" vertex="1" parent="VEC3x4T9xkFiJiI4OAcC-167">
          <mxGeometry y="24.6" width="171" height="25" as="geometry" />
        </mxCell>
        <mxCell id="VEC3x4T9xkFiJiI4OAcC-169" value="+int MeasureTypeId" style="text;strokeColor=none;fillColor=none;align=left;verticalAlign=top;spacingLeft=4;spacingRight=4;overflow=hidden;rotatable=0;points=[[0,0.5],[1,0.5]];portConstraint=eastwest;" vertex="1" parent="VEC3x4T9xkFiJiI4OAcC-167">
          <mxGeometry y="49.6" width="171" height="25" as="geometry" />
        </mxCell>
        <mxCell id="VEC3x4T9xkFiJiI4OAcC-170" value="+string PlaceName" style="text;strokeColor=none;fillColor=none;align=left;verticalAlign=top;spacingLeft=4;spacingRight=4;overflow=hidden;rotatable=0;points=[[0,0.5],[1,0.5]];portConstraint=eastwest;" vertex="1" parent="VEC3x4T9xkFiJiI4OAcC-167">
          <mxGeometry y="74.6" width="171" height="25" as="geometry" />
        </mxCell>
        <mxCell id="VEC3x4T9xkFiJiI4OAcC-171" value="+string? TownName" style="text;strokeColor=none;fillColor=none;align=left;verticalAlign=top;spacingLeft=4;spacingRight=4;overflow=hidden;rotatable=0;points=[[0,0.5],[1,0.5]];portConstraint=eastwest;" vertex="1" parent="VEC3x4T9xkFiJiI4OAcC-167">
          <mxGeometry y="99.6" width="171" height="25" as="geometry" />
        </mxCell>
        <mxCell id="VEC3x4T9xkFiJiI4OAcC-172" value="+string? Address" style="text;strokeColor=none;fillColor=none;align=left;verticalAlign=top;spacingLeft=4;spacingRight=4;overflow=hidden;rotatable=0;points=[[0,0.5],[1,0.5]];portConstraint=eastwest;" vertex="1" parent="VEC3x4T9xkFiJiI4OAcC-167">
          <mxGeometry y="124.6" width="171" height="25" as="geometry" />
        </mxCell>
        <mxCell id="VEC3x4T9xkFiJiI4OAcC-173" value="+Indication Indication" style="text;strokeColor=none;fillColor=none;align=left;verticalAlign=top;spacingLeft=4;spacingRight=4;overflow=hidden;rotatable=0;points=[[0,0.5],[1,0.5]];portConstraint=eastwest;" vertex="1" parent="VEC3x4T9xkFiJiI4OAcC-167">
          <mxGeometry y="149.6" width="171" height="25" as="geometry" />
        </mxCell>
        <mxCell id="VEC3x4T9xkFiJiI4OAcC-174" style="line;strokeWidth=1;fillColor=none;align=left;verticalAlign=middle;spacingTop=-1;spacingLeft=3;spacingRight=3;rotatable=0;labelPosition=right;points=[];portConstraint=eastwest;strokeColor=inherit;" vertex="1" parent="VEC3x4T9xkFiJiI4OAcC-167">
          <mxGeometry y="174.6" width="171" height="12" as="geometry" />
        </mxCell>
        <mxCell id="VEC3x4T9xkFiJiI4OAcC-175" value="FirstLastYearModel" style="swimlane;fontStyle=1;align=center;verticalAlign=top;childLayout=stackLayout;horizontal=1;startSize=27;horizontalStack=0;resizeParent=1;resizeParentMax=0;resizeLast=0;collapsible=0;marginBottom=0;" vertex="1" parent="1">
          <mxGeometry x="661" y="178" width="162" height="95" as="geometry" />
        </mxCell>
        <mxCell id="VEC3x4T9xkFiJiI4OAcC-176" value="+DateTime FirstDate" style="text;strokeColor=none;fillColor=none;align=left;verticalAlign=top;spacingLeft=4;spacingRight=4;overflow=hidden;rotatable=0;points=[[0,0.5],[1,0.5]];portConstraint=eastwest;" vertex="1" parent="VEC3x4T9xkFiJiI4OAcC-175">
          <mxGeometry y="27" width="162" height="27" as="geometry" />
        </mxCell>
        <mxCell id="VEC3x4T9xkFiJiI4OAcC-177" value="+DateTime LastDate" style="text;strokeColor=none;fillColor=none;align=left;verticalAlign=top;spacingLeft=4;spacingRight=4;overflow=hidden;rotatable=0;points=[[0,0.5],[1,0.5]];portConstraint=eastwest;" vertex="1" parent="VEC3x4T9xkFiJiI4OAcC-175">
          <mxGeometry y="54" width="162" height="27" as="geometry" />
        </mxCell>
        <mxCell id="VEC3x4T9xkFiJiI4OAcC-178" style="line;strokeWidth=1;fillColor=none;align=left;verticalAlign=middle;spacingTop=-1;spacingLeft=3;spacingRight=3;rotatable=0;labelPosition=right;points=[];portConstraint=eastwest;strokeColor=inherit;" vertex="1" parent="VEC3x4T9xkFiJiI4OAcC-175">
          <mxGeometry y="81" width="162" height="14" as="geometry" />
        </mxCell>
        <mxCell id="VEC3x4T9xkFiJiI4OAcC-179" value="IdNameModel" style="swimlane;fontStyle=1;align=center;verticalAlign=top;childLayout=stackLayout;horizontal=1;startSize=27;horizontalStack=0;resizeParent=1;resizeParentMax=0;resizeLast=0;collapsible=0;marginBottom=0;" vertex="1" parent="1">
          <mxGeometry x="873" y="178" width="115" height="95" as="geometry" />
        </mxCell>
        <mxCell id="VEC3x4T9xkFiJiI4OAcC-180" value="+int Id" style="text;strokeColor=none;fillColor=none;align=left;verticalAlign=top;spacingLeft=4;spacingRight=4;overflow=hidden;rotatable=0;points=[[0,0.5],[1,0.5]];portConstraint=eastwest;" vertex="1" parent="VEC3x4T9xkFiJiI4OAcC-179">
          <mxGeometry y="27" width="115" height="27" as="geometry" />
        </mxCell>
        <mxCell id="VEC3x4T9xkFiJiI4OAcC-181" value="+string Name" style="text;strokeColor=none;fillColor=none;align=left;verticalAlign=top;spacingLeft=4;spacingRight=4;overflow=hidden;rotatable=0;points=[[0,0.5],[1,0.5]];portConstraint=eastwest;" vertex="1" parent="VEC3x4T9xkFiJiI4OAcC-179">
          <mxGeometry y="54" width="115" height="27" as="geometry" />
        </mxCell>
        <mxCell id="VEC3x4T9xkFiJiI4OAcC-182" style="line;strokeWidth=1;fillColor=none;align=left;verticalAlign=middle;spacingTop=-1;spacingLeft=3;spacingRight=3;rotatable=0;labelPosition=right;points=[];portConstraint=eastwest;strokeColor=inherit;" vertex="1" parent="VEC3x4T9xkFiJiI4OAcC-179">
          <mxGeometry y="81" width="115" height="14" as="geometry" />
        </mxCell>
        <mxCell id="VEC3x4T9xkFiJiI4OAcC-183" value="MeasureWithIndications" style="swimlane;fontStyle=1;align=center;verticalAlign=top;childLayout=stackLayout;horizontal=1;startSize=23.4;horizontalStack=0;resizeParent=1;resizeParentMax=0;resizeLast=0;collapsible=0;marginBottom=0;" vertex="1" parent="1">
          <mxGeometry x="1038" y="20" width="359" height="403.4" as="geometry" />
        </mxCell>
        <mxCell id="VEC3x4T9xkFiJiI4OAcC-184" value="+IEnumerable&lt;MeasureType&gt; MeasureTypes" style="text;strokeColor=none;fillColor=none;align=left;verticalAlign=top;spacingLeft=4;spacingRight=4;overflow=hidden;rotatable=0;points=[[0,0.5],[1,0.5]];portConstraint=eastwest;" vertex="1" parent="VEC3x4T9xkFiJiI4OAcC-183">
          <mxGeometry y="23.4" width="359" height="23" as="geometry" />
        </mxCell>
        <mxCell id="VEC3x4T9xkFiJiI4OAcC-185" value="+PaginatedList&lt;FullIndicationModel&gt; Indications" style="text;strokeColor=none;fillColor=none;align=left;verticalAlign=top;spacingLeft=4;spacingRight=4;overflow=hidden;rotatable=0;points=[[0,0.5],[1,0.5]];portConstraint=eastwest;" vertex="1" parent="VEC3x4T9xkFiJiI4OAcC-183">
          <mxGeometry y="46.4" width="359" height="23" as="geometry" />
        </mxCell>
        <mxCell id="VEC3x4T9xkFiJiI4OAcC-186" value="+int MinYear" style="text;strokeColor=none;fillColor=none;align=left;verticalAlign=top;spacingLeft=4;spacingRight=4;overflow=hidden;rotatable=0;points=[[0,0.5],[1,0.5]];portConstraint=eastwest;" vertex="1" parent="VEC3x4T9xkFiJiI4OAcC-183">
          <mxGeometry y="69.4" width="359" height="23" as="geometry" />
        </mxCell>
        <mxCell id="VEC3x4T9xkFiJiI4OAcC-187" value="+int MaxYear" style="text;strokeColor=none;fillColor=none;align=left;verticalAlign=top;spacingLeft=4;spacingRight=4;overflow=hidden;rotatable=0;points=[[0,0.5],[1,0.5]];portConstraint=eastwest;" vertex="1" parent="VEC3x4T9xkFiJiI4OAcC-183">
          <mxGeometry y="92.4" width="359" height="23" as="geometry" />
        </mxCell>
        <mxCell id="VEC3x4T9xkFiJiI4OAcC-188" value="+string TitleMeasureTypeName" style="text;strokeColor=none;fillColor=none;align=left;verticalAlign=top;spacingLeft=4;spacingRight=4;overflow=hidden;rotatable=0;points=[[0,0.5],[1,0.5]];portConstraint=eastwest;" vertex="1" parent="VEC3x4T9xkFiJiI4OAcC-183">
          <mxGeometry y="115.4" width="359" height="23" as="geometry" />
        </mxCell>
        <mxCell id="VEC3x4T9xkFiJiI4OAcC-189" value="+int? TitleMeasureTypeId" style="text;strokeColor=none;fillColor=none;align=left;verticalAlign=top;spacingLeft=4;spacingRight=4;overflow=hidden;rotatable=0;points=[[0,0.5],[1,0.5]];portConstraint=eastwest;" vertex="1" parent="VEC3x4T9xkFiJiI4OAcC-183">
          <mxGeometry y="138.4" width="359" height="23" as="geometry" />
        </mxCell>
        <mxCell id="VEC3x4T9xkFiJiI4OAcC-190" value="+string SelectedStartYear" style="text;strokeColor=none;fillColor=none;align=left;verticalAlign=top;spacingLeft=4;spacingRight=4;overflow=hidden;rotatable=0;points=[[0,0.5],[1,0.5]];portConstraint=eastwest;" vertex="1" parent="VEC3x4T9xkFiJiI4OAcC-183">
          <mxGeometry y="161.4" width="359" height="23" as="geometry" />
        </mxCell>
        <mxCell id="VEC3x4T9xkFiJiI4OAcC-191" value="+string SelectedLastYear" style="text;strokeColor=none;fillColor=none;align=left;verticalAlign=top;spacingLeft=4;spacingRight=4;overflow=hidden;rotatable=0;points=[[0,0.5],[1,0.5]];portConstraint=eastwest;" vertex="1" parent="VEC3x4T9xkFiJiI4OAcC-183">
          <mxGeometry y="184.4" width="359" height="23" as="geometry" />
        </mxCell>
        <mxCell id="VEC3x4T9xkFiJiI4OAcC-192" value="+List&lt;SelectListItem&gt; Years" style="text;strokeColor=none;fillColor=none;align=left;verticalAlign=top;spacingLeft=4;spacingRight=4;overflow=hidden;rotatable=0;points=[[0,0.5],[1,0.5]];portConstraint=eastwest;" vertex="1" parent="VEC3x4T9xkFiJiI4OAcC-183">
          <mxGeometry y="207.4" width="359" height="23" as="geometry" />
        </mxCell>
        <mxCell id="VEC3x4T9xkFiJiI4OAcC-193" value="+string SelectedStartMonth" style="text;strokeColor=none;fillColor=none;align=left;verticalAlign=top;spacingLeft=4;spacingRight=4;overflow=hidden;rotatable=0;points=[[0,0.5],[1,0.5]];portConstraint=eastwest;" vertex="1" parent="VEC3x4T9xkFiJiI4OAcC-183">
          <mxGeometry y="230.4" width="359" height="23" as="geometry" />
        </mxCell>
        <mxCell id="VEC3x4T9xkFiJiI4OAcC-194" value="+string SelectedLastMonth" style="text;strokeColor=none;fillColor=none;align=left;verticalAlign=top;spacingLeft=4;spacingRight=4;overflow=hidden;rotatable=0;points=[[0,0.5],[1,0.5]];portConstraint=eastwest;" vertex="1" parent="VEC3x4T9xkFiJiI4OAcC-183">
          <mxGeometry y="253.4" width="359" height="23" as="geometry" />
        </mxCell>
        <mxCell id="VEC3x4T9xkFiJiI4OAcC-195" value="+List&lt;SelectListItem&gt; Months" style="text;strokeColor=none;fillColor=none;align=left;verticalAlign=top;spacingLeft=4;spacingRight=4;overflow=hidden;rotatable=0;points=[[0,0.5],[1,0.5]];portConstraint=eastwest;" vertex="1" parent="VEC3x4T9xkFiJiI4OAcC-183">
          <mxGeometry y="276.4" width="359" height="23" as="geometry" />
        </mxCell>
        <mxCell id="VEC3x4T9xkFiJiI4OAcC-196" value="+string SelectedPlace" style="text;strokeColor=none;fillColor=none;align=left;verticalAlign=top;spacingLeft=4;spacingRight=4;overflow=hidden;rotatable=0;points=[[0,0.5],[1,0.5]];portConstraint=eastwest;" vertex="1" parent="VEC3x4T9xkFiJiI4OAcC-183">
          <mxGeometry y="299.4" width="359" height="23" as="geometry" />
        </mxCell>
        <mxCell id="VEC3x4T9xkFiJiI4OAcC-197" value="+List&lt;SelectListItem&gt; Places" style="text;strokeColor=none;fillColor=none;align=left;verticalAlign=top;spacingLeft=4;spacingRight=4;overflow=hidden;rotatable=0;points=[[0,0.5],[1,0.5]];portConstraint=eastwest;" vertex="1" parent="VEC3x4T9xkFiJiI4OAcC-183">
          <mxGeometry y="322.4" width="359" height="23" as="geometry" />
        </mxCell>
        <mxCell id="VEC3x4T9xkFiJiI4OAcC-198" value="+string SelectTown" style="text;strokeColor=none;fillColor=none;align=left;verticalAlign=top;spacingLeft=4;spacingRight=4;overflow=hidden;rotatable=0;points=[[0,0.5],[1,0.5]];portConstraint=eastwest;" vertex="1" parent="VEC3x4T9xkFiJiI4OAcC-183">
          <mxGeometry y="345.4" width="359" height="23" as="geometry" />
        </mxCell>
        <mxCell id="VEC3x4T9xkFiJiI4OAcC-199" value="+List&lt;SelectListItem&gt; Towns" style="text;strokeColor=none;fillColor=none;align=left;verticalAlign=top;spacingLeft=4;spacingRight=4;overflow=hidden;rotatable=0;points=[[0,0.5],[1,0.5]];portConstraint=eastwest;" vertex="1" parent="VEC3x4T9xkFiJiI4OAcC-183">
          <mxGeometry y="368.4" width="359" height="23" as="geometry" />
        </mxCell>
        <mxCell id="VEC3x4T9xkFiJiI4OAcC-200" style="line;strokeWidth=1;fillColor=none;align=left;verticalAlign=middle;spacingTop=-1;spacingLeft=3;spacingRight=3;rotatable=0;labelPosition=right;points=[];portConstraint=eastwest;strokeColor=inherit;" vertex="1" parent="VEC3x4T9xkFiJiI4OAcC-183">
          <mxGeometry y="391.4" width="359" height="12" as="geometry" />
        </mxCell>
        <mxCell id="VEC3x4T9xkFiJiI4OAcC-201" value="PaginatedList" style="swimlane;fontStyle=1;align=center;verticalAlign=top;childLayout=stackLayout;horizontal=1;startSize=27;horizontalStack=0;resizeParent=1;resizeParentMax=0;resizeLast=0;collapsible=0;marginBottom=0;" vertex="1" parent="1">
          <mxGeometry x="1447" y="144" width="288" height="170" as="geometry" />
        </mxCell>
        <mxCell id="VEC3x4T9xkFiJiI4OAcC-202" value="+int PageIndex" style="text;strokeColor=none;fillColor=none;align=left;verticalAlign=top;spacingLeft=4;spacingRight=4;overflow=hidden;rotatable=0;points=[[0,0.5],[1,0.5]];portConstraint=eastwest;" vertex="1" parent="VEC3x4T9xkFiJiI4OAcC-201">
          <mxGeometry y="27" width="288" height="27" as="geometry" />
        </mxCell>
        <mxCell id="VEC3x4T9xkFiJiI4OAcC-203" value="+int TotalPages" style="text;strokeColor=none;fillColor=none;align=left;verticalAlign=top;spacingLeft=4;spacingRight=4;overflow=hidden;rotatable=0;points=[[0,0.5],[1,0.5]];portConstraint=eastwest;" vertex="1" parent="VEC3x4T9xkFiJiI4OAcC-201">
          <mxGeometry y="54" width="288" height="27" as="geometry" />
        </mxCell>
        <mxCell id="VEC3x4T9xkFiJiI4OAcC-204" value="+bool HasPreviousPage" style="text;strokeColor=none;fillColor=none;align=left;verticalAlign=top;spacingLeft=4;spacingRight=4;overflow=hidden;rotatable=0;points=[[0,0.5],[1,0.5]];portConstraint=eastwest;" vertex="1" parent="VEC3x4T9xkFiJiI4OAcC-201">
          <mxGeometry y="81" width="288" height="27" as="geometry" />
        </mxCell>
        <mxCell id="VEC3x4T9xkFiJiI4OAcC-205" value="+bool HasNextPage" style="text;strokeColor=none;fillColor=none;align=left;verticalAlign=top;spacingLeft=4;spacingRight=4;overflow=hidden;rotatable=0;points=[[0,0.5],[1,0.5]];portConstraint=eastwest;" vertex="1" parent="VEC3x4T9xkFiJiI4OAcC-201">
          <mxGeometry y="108" width="288" height="27" as="geometry" />
        </mxCell>
        <mxCell id="VEC3x4T9xkFiJiI4OAcC-206" style="line;strokeWidth=1;fillColor=none;align=left;verticalAlign=middle;spacingTop=-1;spacingLeft=3;spacingRight=3;rotatable=0;labelPosition=right;points=[];portConstraint=eastwest;strokeColor=inherit;" vertex="1" parent="VEC3x4T9xkFiJiI4OAcC-201">
          <mxGeometry y="135" width="288" height="8" as="geometry" />
        </mxCell>
        <mxCell id="VEC3x4T9xkFiJiI4OAcC-207" value="+CreateAsync(IQueryable&lt;T&gt;, int, int)" style="text;strokeColor=none;fillColor=none;align=left;verticalAlign=top;spacingLeft=4;spacingRight=4;overflow=hidden;rotatable=0;points=[[0,0.5],[1,0.5]];portConstraint=eastwest;" vertex="1" parent="VEC3x4T9xkFiJiI4OAcC-201">
          <mxGeometry y="143" width="288" height="27" as="geometry" />
        </mxCell>
        <mxCell id="VEC3x4T9xkFiJiI4OAcC-208" value="Contains" style="curved=1;startArrow=none;endArrow=diamondThin;endSize=14;endFill=1;exitX=0.34229952608858855;exitY=1.0011627906976743;entryX=0.33804770880979607;entryY=0;rounded=0;" edge="1" parent="1" source="VEC3x4T9xkFiJiI4OAcC-1" target="VEC3x4T9xkFiJiI4OAcC-10">
          <mxGeometry relative="1" as="geometry">
            <Array as="points">
              <mxPoint x="73" y="472" />
            </Array>
          </mxGeometry>
        </mxCell>
        <mxCell id="VEC3x4T9xkFiJiI4OAcC-209" value="1" style="edgeLabel;resizable=0;labelBackgroundColor=none;fontSize=12;align=right;verticalAlign=top;" vertex="1" parent="VEC3x4T9xkFiJiI4OAcC-208">
          <mxGeometry x="-1" relative="1" as="geometry" />
        </mxCell>
        <mxCell id="VEC3x4T9xkFiJiI4OAcC-210" value="many" style="edgeLabel;resizable=0;labelBackgroundColor=none;fontSize=12;align=left;verticalAlign=bottom;" vertex="1" parent="VEC3x4T9xkFiJiI4OAcC-208">
          <mxGeometry x="1" relative="1" as="geometry" />
        </mxCell>
        <mxCell id="VEC3x4T9xkFiJiI4OAcC-211" value="Belongs To" style="curved=1;startArrow=none;endArrow=none;exitX=0.7458253674718888;exitY=0;entryX=0.4476372857232232;entryY=1.0011627906976743;rounded=0;" edge="1" parent="1" source="VEC3x4T9xkFiJiI4OAcC-10" target="VEC3x4T9xkFiJiI4OAcC-1">
          <mxGeometry relative="1" as="geometry">
            <Array as="points">
              <mxPoint x="161" y="472" />
            </Array>
          </mxGeometry>
        </mxCell>
        <mxCell id="VEC3x4T9xkFiJiI4OAcC-212" value="*" style="edgeLabel;resizable=0;labelBackgroundColor=none;fontSize=12;align=right;verticalAlign=bottom;" vertex="1" parent="VEC3x4T9xkFiJiI4OAcC-211">
          <mxGeometry x="-1" relative="1" as="geometry" />
        </mxCell>
        <mxCell id="VEC3x4T9xkFiJiI4OAcC-213" value="1" style="edgeLabel;resizable=0;labelBackgroundColor=none;fontSize=12;align=left;verticalAlign=top;" vertex="1" parent="VEC3x4T9xkFiJiI4OAcC-211">
          <mxGeometry x="1" relative="1" as="geometry" />
        </mxCell>
        <mxCell id="VEC3x4T9xkFiJiI4OAcC-214" value="Contains" style="curved=1;startArrow=none;endArrow=diamondThin;endSize=14;endFill=1;exitX=0.5659846369807308;exitY=1.0011627906976743;entryX=-0.0033698283450704224;entryY=0.19781515381363937;rounded=0;" edge="1" parent="1" source="VEC3x4T9xkFiJiI4OAcC-1" target="VEC3x4T9xkFiJiI4OAcC-56">
          <mxGeometry relative="1" as="geometry">
            <Array as="points">
              <mxPoint x="260" y="472" />
            </Array>
          </mxGeometry>
        </mxCell>
        <mxCell id="VEC3x4T9xkFiJiI4OAcC-215" value="1" style="edgeLabel;resizable=0;labelBackgroundColor=none;fontSize=12;align=right;verticalAlign=top;" vertex="1" parent="VEC3x4T9xkFiJiI4OAcC-214">
          <mxGeometry x="-1" relative="1" as="geometry" />
        </mxCell>
        <mxCell id="VEC3x4T9xkFiJiI4OAcC-216" value="many" style="edgeLabel;resizable=0;labelBackgroundColor=none;fontSize=12;align=left;verticalAlign=bottom;" vertex="1" parent="VEC3x4T9xkFiJiI4OAcC-214">
          <mxGeometry x="1" relative="1" as="geometry" />
        </mxCell>
        <mxCell id="VEC3x4T9xkFiJiI4OAcC-217" value="Belongs To" style="curved=1;startArrow=none;endArrow=none;exitX=0.8810241682998938;exitY=0.0016891891891891893;entryX=0.8979849315461295;entryY=1.0011627906976743;rounded=0;" edge="1" parent="1" source="VEC3x4T9xkFiJiI4OAcC-56" target="VEC3x4T9xkFiJiI4OAcC-1">
          <mxGeometry relative="1" as="geometry">
            <Array as="points">
              <mxPoint x="538" y="472" />
            </Array>
          </mxGeometry>
        </mxCell>
        <mxCell id="VEC3x4T9xkFiJiI4OAcC-218" value="*" style="edgeLabel;resizable=0;labelBackgroundColor=none;fontSize=12;align=right;verticalAlign=bottom;" vertex="1" parent="VEC3x4T9xkFiJiI4OAcC-217">
          <mxGeometry x="-1" relative="1" as="geometry" />
        </mxCell>
        <mxCell id="VEC3x4T9xkFiJiI4OAcC-219" value="1" style="edgeLabel;resizable=0;labelBackgroundColor=none;fontSize=12;align=left;verticalAlign=top;" vertex="1" parent="VEC3x4T9xkFiJiI4OAcC-217">
          <mxGeometry x="1" relative="1" as="geometry" />
        </mxCell>
        <mxCell id="VEC3x4T9xkFiJiI4OAcC-220" value="Contains" style="curved=1;startArrow=none;endArrow=diamondThin;endSize=14;endFill=1;exitX=-0.0012794535427807486;exitY=0.8057012677667753;entryX=0.29722724209752516;entryY=0;rounded=0;" edge="1" parent="1" source="VEC3x4T9xkFiJiI4OAcC-17" target="VEC3x4T9xkFiJiI4OAcC-42">
          <mxGeometry relative="1" as="geometry">
            <Array as="points">
              <mxPoint x="108" y="1354" />
            </Array>
          </mxGeometry>
        </mxCell>
        <mxCell id="VEC3x4T9xkFiJiI4OAcC-221" value="1" style="edgeLabel;resizable=0;labelBackgroundColor=none;fontSize=12;align=right;verticalAlign=top;" vertex="1" parent="VEC3x4T9xkFiJiI4OAcC-220">
          <mxGeometry x="-1" relative="1" as="geometry" />
        </mxCell>
        <mxCell id="VEC3x4T9xkFiJiI4OAcC-222" value="many" style="edgeLabel;resizable=0;labelBackgroundColor=none;fontSize=12;align=left;verticalAlign=bottom;" vertex="1" parent="VEC3x4T9xkFiJiI4OAcC-220">
          <mxGeometry x="1" relative="1" as="geometry" />
        </mxCell>
        <mxCell id="VEC3x4T9xkFiJiI4OAcC-223" value="Belongs To" style="curved=1;startArrow=none;endArrow=none;exitX=0.8512997010196303;exitY=0;entryX=-0.0012794535427807486;entryY=0.971170577397553;rounded=0;" edge="1" parent="1" source="VEC3x4T9xkFiJiI4OAcC-42" target="VEC3x4T9xkFiJiI4OAcC-17">
          <mxGeometry relative="1" as="geometry">
            <Array as="points">
              <mxPoint x="228" y="1354" />
            </Array>
          </mxGeometry>
        </mxCell>
        <mxCell id="VEC3x4T9xkFiJiI4OAcC-224" value="*" style="edgeLabel;resizable=0;labelBackgroundColor=none;fontSize=12;align=left;verticalAlign=bottom;" vertex="1" parent="VEC3x4T9xkFiJiI4OAcC-223">
          <mxGeometry x="-1" relative="1" as="geometry" />
        </mxCell>
        <mxCell id="VEC3x4T9xkFiJiI4OAcC-225" value="1" style="edgeLabel;resizable=0;labelBackgroundColor=none;fontSize=12;align=right;verticalAlign=top;" vertex="1" parent="VEC3x4T9xkFiJiI4OAcC-223">
          <mxGeometry x="1" relative="1" as="geometry" />
        </mxCell>
        <mxCell id="VEC3x4T9xkFiJiI4OAcC-226" value="Contains" style="curved=1;startArrow=none;endArrow=diamondThin;endSize=14;endFill=1;exitX=0.17957902551715213;exitY=0.9991304347826087;entryX=0.2607180657465642;entryY=0;rounded=0;" edge="1" parent="1" source="VEC3x4T9xkFiJiI4OAcC-17" target="VEC3x4T9xkFiJiI4OAcC-49">
          <mxGeometry relative="1" as="geometry">
            <Array as="points">
              <mxPoint x="316" y="1354" />
            </Array>
          </mxGeometry>
        </mxCell>
        <mxCell id="VEC3x4T9xkFiJiI4OAcC-227" value="1" style="edgeLabel;resizable=0;labelBackgroundColor=none;fontSize=12;align=right;verticalAlign=top;" vertex="1" parent="VEC3x4T9xkFiJiI4OAcC-226">
          <mxGeometry x="-1" relative="1" as="geometry" />
        </mxCell>
        <mxCell id="VEC3x4T9xkFiJiI4OAcC-228" value="many" style="edgeLabel;resizable=0;labelBackgroundColor=none;fontSize=12;align=left;verticalAlign=bottom;" vertex="1" parent="VEC3x4T9xkFiJiI4OAcC-226">
          <mxGeometry x="1" relative="1" as="geometry" />
        </mxCell>
        <mxCell id="VEC3x4T9xkFiJiI4OAcC-229" value="Belongs To" style="curved=1;startArrow=none;endArrow=none;exitX=0.7498937587351502;exitY=0;entryX=0.5485010135484317;entryY=0.9991304347826087;rounded=0;" edge="1" parent="1" source="VEC3x4T9xkFiJiI4OAcC-49" target="VEC3x4T9xkFiJiI4OAcC-17">
          <mxGeometry relative="1" as="geometry">
            <Array as="points">
              <mxPoint x="470" y="1354" />
            </Array>
          </mxGeometry>
        </mxCell>
        <mxCell id="VEC3x4T9xkFiJiI4OAcC-230" value="*" style="edgeLabel;resizable=0;labelBackgroundColor=none;fontSize=12;align=right;verticalAlign=bottom;" vertex="1" parent="VEC3x4T9xkFiJiI4OAcC-229">
          <mxGeometry x="-1" relative="1" as="geometry" />
        </mxCell>
        <mxCell id="VEC3x4T9xkFiJiI4OAcC-231" value="1" style="edgeLabel;resizable=0;labelBackgroundColor=none;fontSize=12;align=left;verticalAlign=top;" vertex="1" parent="VEC3x4T9xkFiJiI4OAcC-229">
          <mxGeometry x="1" relative="1" as="geometry" />
        </mxCell>
        <mxCell id="VEC3x4T9xkFiJiI4OAcC-232" value="Contains" style="curved=1;startArrow=none;endArrow=diamondThin;endSize=14;endFill=1;exitX=0.7589909330540597;exitY=0.9991304347826087;entryX=0.16305345201560997;entryY=0;rounded=0;" edge="1" parent="1" source="VEC3x4T9xkFiJiI4OAcC-17" target="VEC3x4T9xkFiJiI4OAcC-62">
          <mxGeometry relative="1" as="geometry">
            <Array as="points">
              <mxPoint x="558" y="1354" />
            </Array>
          </mxGeometry>
        </mxCell>
        <mxCell id="VEC3x4T9xkFiJiI4OAcC-233" value="1" style="edgeLabel;resizable=0;labelBackgroundColor=none;fontSize=12;align=right;verticalAlign=top;" vertex="1" parent="VEC3x4T9xkFiJiI4OAcC-232">
          <mxGeometry x="-1" relative="1" as="geometry" />
        </mxCell>
        <mxCell id="VEC3x4T9xkFiJiI4OAcC-234" value="many" style="edgeLabel;resizable=0;labelBackgroundColor=none;fontSize=12;align=left;verticalAlign=bottom;" vertex="1" parent="VEC3x4T9xkFiJiI4OAcC-232">
          <mxGeometry x="1" relative="1" as="geometry" />
        </mxCell>
        <mxCell id="VEC3x4T9xkFiJiI4OAcC-235" value="Belongs To" style="curved=1;startArrow=none;endArrow=none;exitX=0.756702616282741;exitY=0;entryX=0.9992427723930482;entryY=0.922849392261168;rounded=0;" edge="1" parent="1" source="VEC3x4T9xkFiJiI4OAcC-62" target="VEC3x4T9xkFiJiI4OAcC-17">
          <mxGeometry relative="1" as="geometry">
            <Array as="points">
              <mxPoint x="697" y="1354" />
            </Array>
          </mxGeometry>
        </mxCell>
        <mxCell id="VEC3x4T9xkFiJiI4OAcC-236" value="*" style="edgeLabel;resizable=0;labelBackgroundColor=none;fontSize=12;align=right;verticalAlign=bottom;" vertex="1" parent="VEC3x4T9xkFiJiI4OAcC-235">
          <mxGeometry x="-1" relative="1" as="geometry" />
        </mxCell>
        <mxCell id="VEC3x4T9xkFiJiI4OAcC-237" value="1" style="edgeLabel;resizable=0;labelBackgroundColor=none;fontSize=12;align=left;verticalAlign=top;" vertex="1" parent="VEC3x4T9xkFiJiI4OAcC-235">
          <mxGeometry x="1" relative="1" as="geometry" />
        </mxCell>
        <mxCell id="VEC3x4T9xkFiJiI4OAcC-238" value="Contains" style="curved=1;startArrow=none;endArrow=diamondThin;endSize=14;endFill=1;exitX=0.9992427723930482;exitY=0.8114766911182375;entryX=0.2534074002510766;entryY=0.0016891891891891893;rounded=0;" edge="1" parent="1" source="VEC3x4T9xkFiJiI4OAcC-17" target="VEC3x4T9xkFiJiI4OAcC-69">
          <mxGeometry relative="1" as="geometry">
            <Array as="points">
              <mxPoint x="785" y="1354" />
            </Array>
          </mxGeometry>
        </mxCell>
        <mxCell id="VEC3x4T9xkFiJiI4OAcC-239" value="1" style="edgeLabel;resizable=0;labelBackgroundColor=none;fontSize=12;align=left;verticalAlign=top;" vertex="1" parent="VEC3x4T9xkFiJiI4OAcC-238">
          <mxGeometry x="-1" relative="1" as="geometry" />
        </mxCell>
        <mxCell id="VEC3x4T9xkFiJiI4OAcC-240" value="many" style="edgeLabel;resizable=0;labelBackgroundColor=none;fontSize=12;align=right;verticalAlign=bottom;" vertex="1" parent="VEC3x4T9xkFiJiI4OAcC-238">
          <mxGeometry x="1" relative="1" as="geometry" />
        </mxCell>
        <mxCell id="VEC3x4T9xkFiJiI4OAcC-241" value="Belongs To" style="curved=1;startArrow=none;endArrow=none;exitX=0.7256584230161768;exitY=0.0016891891891891893;entryX=0.9992427723930482;entryY=0.7327180729109727;rounded=0;" edge="1" parent="1" source="VEC3x4T9xkFiJiI4OAcC-69" target="VEC3x4T9xkFiJiI4OAcC-17">
          <mxGeometry relative="1" as="geometry">
            <Array as="points">
              <mxPoint x="898" y="1354" />
            </Array>
          </mxGeometry>
        </mxCell>
        <mxCell id="VEC3x4T9xkFiJiI4OAcC-242" value="*" style="edgeLabel;resizable=0;labelBackgroundColor=none;fontSize=12;align=right;verticalAlign=bottom;" vertex="1" parent="VEC3x4T9xkFiJiI4OAcC-241">
          <mxGeometry x="-1" relative="1" as="geometry" />
        </mxCell>
        <mxCell id="VEC3x4T9xkFiJiI4OAcC-243" value="1" style="edgeLabel;resizable=0;labelBackgroundColor=none;fontSize=12;align=left;verticalAlign=top;" vertex="1" parent="VEC3x4T9xkFiJiI4OAcC-241">
          <mxGeometry x="1" relative="1" as="geometry" />
        </mxCell>
        <mxCell id="VEC3x4T9xkFiJiI4OAcC-244" value="Contains" style="curved=1;startArrow=none;endArrow=diamondThin;endSize=14;endFill=1;exitX=0.9992427723930482;exitY=0.6943449965204408;entryX=0.26997836896905514;entryY=0.0016891891891891893;rounded=0;" edge="1" parent="1" source="VEC3x4T9xkFiJiI4OAcC-17" target="VEC3x4T9xkFiJiI4OAcC-161">
          <mxGeometry relative="1" as="geometry">
            <Array as="points">
              <mxPoint x="986" y="1354" />
            </Array>
          </mxGeometry>
        </mxCell>
        <mxCell id="VEC3x4T9xkFiJiI4OAcC-245" value="1" style="edgeLabel;resizable=0;labelBackgroundColor=none;fontSize=12;align=left;verticalAlign=top;" vertex="1" parent="VEC3x4T9xkFiJiI4OAcC-244">
          <mxGeometry x="-1" relative="1" as="geometry" />
        </mxCell>
        <mxCell id="VEC3x4T9xkFiJiI4OAcC-246" value="many" style="edgeLabel;resizable=0;labelBackgroundColor=none;fontSize=12;align=right;verticalAlign=bottom;" vertex="1" parent="VEC3x4T9xkFiJiI4OAcC-244">
          <mxGeometry x="1" relative="1" as="geometry" />
        </mxCell>
        <mxCell id="VEC3x4T9xkFiJiI4OAcC-247" value="Belongs To" style="curved=1;startArrow=none;endArrow=none;exitX=0.6949066153999465;exitY=0.0016891891891891893;entryX=0.9992427723930482;entryY=0.6642969954572353;rounded=0;" edge="1" parent="1" source="VEC3x4T9xkFiJiI4OAcC-161" target="VEC3x4T9xkFiJiI4OAcC-17">
          <mxGeometry relative="1" as="geometry">
            <Array as="points">
              <mxPoint x="1083" y="1354" />
            </Array>
          </mxGeometry>
        </mxCell>
        <mxCell id="VEC3x4T9xkFiJiI4OAcC-248" value="*" style="edgeLabel;resizable=0;labelBackgroundColor=none;fontSize=12;align=right;verticalAlign=bottom;" vertex="1" parent="VEC3x4T9xkFiJiI4OAcC-247">
          <mxGeometry x="-1" relative="1" as="geometry" />
        </mxCell>
        <mxCell id="VEC3x4T9xkFiJiI4OAcC-249" value="1" style="edgeLabel;resizable=0;labelBackgroundColor=none;fontSize=12;align=left;verticalAlign=top;" vertex="1" parent="VEC3x4T9xkFiJiI4OAcC-247">
          <mxGeometry x="1" relative="1" as="geometry" />
        </mxCell>
        <mxCell id="VEC3x4T9xkFiJiI4OAcC-250" value="Contains" style="curved=1;startArrow=none;endArrow=diamondThin;endSize=14;endFill=1;exitX=0.7094715789307616;exitY=-0.0008695652173913044;entryX=0.8810241682998938;entryY=0.9983108108108109;rounded=0;" edge="1" parent="1" source="VEC3x4T9xkFiJiI4OAcC-17" target="VEC3x4T9xkFiJiI4OAcC-56">
          <mxGeometry relative="1" as="geometry">
            <Array as="points">
              <mxPoint x="538" y="710" />
            </Array>
          </mxGeometry>
        </mxCell>
        <mxCell id="VEC3x4T9xkFiJiI4OAcC-251" value="1" style="edgeLabel;resizable=0;labelBackgroundColor=none;fontSize=12;align=right;verticalAlign=bottom;" vertex="1" parent="VEC3x4T9xkFiJiI4OAcC-250">
          <mxGeometry x="-1" relative="1" as="geometry" />
        </mxCell>
        <mxCell id="VEC3x4T9xkFiJiI4OAcC-252" value="many" style="edgeLabel;resizable=0;labelBackgroundColor=none;fontSize=12;align=left;verticalAlign=top;" vertex="1" parent="VEC3x4T9xkFiJiI4OAcC-250">
          <mxGeometry x="1" relative="1" as="geometry" />
        </mxCell>
        <mxCell id="VEC3x4T9xkFiJiI4OAcC-253" value="Belongs To" style="curved=1;startArrow=none;endArrow=none;exitX=0.4973178917253521;exitY=0.9983108108108109;entryX=0.4989816594251337;entryY=-0.0008695652173913044;rounded=0;" edge="1" parent="1" source="VEC3x4T9xkFiJiI4OAcC-56" target="VEC3x4T9xkFiJiI4OAcC-17">
          <mxGeometry relative="1" as="geometry">
            <Array as="points" />
          </mxGeometry>
        </mxCell>
        <mxCell id="VEC3x4T9xkFiJiI4OAcC-254" value="*" style="edgeLabel;resizable=0;labelBackgroundColor=none;fontSize=12;align=right;verticalAlign=top;" vertex="1" parent="VEC3x4T9xkFiJiI4OAcC-253">
          <mxGeometry x="-1" relative="1" as="geometry" />
        </mxCell>
        <mxCell id="VEC3x4T9xkFiJiI4OAcC-255" value="1" style="edgeLabel;resizable=0;labelBackgroundColor=none;fontSize=12;align=left;verticalAlign=bottom;" vertex="1" parent="VEC3x4T9xkFiJiI4OAcC-253">
          <mxGeometry x="1" relative="1" as="geometry" />
        </mxCell>
        <mxCell id="VEC3x4T9xkFiJiI4OAcC-256" value="Contains" style="curved=1;startArrow=none;endArrow=none;exitX=0.0015098625886524823;exitY=0.7624861100623761;entryX=0.2213297708100299;entryY=-0.0025906735751295338;rounded=0;" edge="1" parent="1" source="VEC3x4T9xkFiJiI4OAcC-125" target="VEC3x4T9xkFiJiI4OAcC-84">
          <mxGeometry relative="1" as="geometry">
            <Array as="points">
              <mxPoint x="726" y="2056" />
            </Array>
          </mxGeometry>
        </mxCell>
        <mxCell id="VEC3x4T9xkFiJiI4OAcC-257" value="*" style="edgeLabel;resizable=0;labelBackgroundColor=none;fontSize=12;align=right;verticalAlign=top;" vertex="1" parent="VEC3x4T9xkFiJiI4OAcC-256">
          <mxGeometry x="-1" relative="1" as="geometry" />
        </mxCell>
        <mxCell id="VEC3x4T9xkFiJiI4OAcC-258" value="many" style="edgeLabel;resizable=0;labelBackgroundColor=none;fontSize=12;align=left;verticalAlign=bottom;" vertex="1" parent="VEC3x4T9xkFiJiI4OAcC-256">
          <mxGeometry x="1" relative="1" as="geometry" />
        </mxCell>
        <mxCell id="VEC3x4T9xkFiJiI4OAcC-259" value="Belongs To" style="curved=1;startArrow=none;endArrow=none;exitX=0.7187831346709542;exitY=-0.0025906735751295338;entryX=0.014412887101494362;entryY=0.9987341772151899;rounded=0;" edge="1" parent="1" source="VEC3x4T9xkFiJiI4OAcC-84" target="VEC3x4T9xkFiJiI4OAcC-125">
          <mxGeometry relative="1" as="geometry">
            <Array as="points">
              <mxPoint x="878" y="2056" />
            </Array>
          </mxGeometry>
        </mxCell>
        <mxCell id="VEC3x4T9xkFiJiI4OAcC-260" value="*" style="edgeLabel;resizable=0;labelBackgroundColor=none;fontSize=12;align=left;verticalAlign=bottom;" vertex="1" parent="VEC3x4T9xkFiJiI4OAcC-259">
          <mxGeometry x="-1" relative="1" as="geometry" />
        </mxCell>
        <mxCell id="VEC3x4T9xkFiJiI4OAcC-261" value="1" style="edgeLabel;resizable=0;labelBackgroundColor=none;fontSize=12;align=right;verticalAlign=top;" vertex="1" parent="VEC3x4T9xkFiJiI4OAcC-259">
          <mxGeometry x="1" relative="1" as="geometry" />
        </mxCell>
        <mxCell id="VEC3x4T9xkFiJiI4OAcC-262" value="Contains" style="curved=1;startArrow=none;endArrow=none;exitX=0.0015098625886524823;exitY=0.6542849572504162;entryX=0.36604435513460243;entryY=0;rounded=0;" edge="1" parent="1" source="VEC3x4T9xkFiJiI4OAcC-125" target="VEC3x4T9xkFiJiI4OAcC-142">
          <mxGeometry relative="1" as="geometry">
            <Array as="points">
              <mxPoint x="508" y="2056" />
            </Array>
          </mxGeometry>
        </mxCell>
        <mxCell id="VEC3x4T9xkFiJiI4OAcC-263" value="*" style="edgeLabel;resizable=0;labelBackgroundColor=none;fontSize=12;align=right;verticalAlign=top;" vertex="1" parent="VEC3x4T9xkFiJiI4OAcC-262">
          <mxGeometry x="-1" relative="1" as="geometry" />
        </mxCell>
        <mxCell id="VEC3x4T9xkFiJiI4OAcC-264" value="many" style="edgeLabel;resizable=0;labelBackgroundColor=none;fontSize=12;align=left;verticalAlign=bottom;" vertex="1" parent="VEC3x4T9xkFiJiI4OAcC-262">
          <mxGeometry x="1" relative="1" as="geometry" />
        </mxCell>
        <mxCell id="VEC3x4T9xkFiJiI4OAcC-265" value="Belongs To" style="curved=1;startArrow=none;endArrow=none;exitX=0.763032171781235;exitY=0;entryX=0.0015098625886524823;entryY=0.7046495754602214;rounded=0;" edge="1" parent="1" source="VEC3x4T9xkFiJiI4OAcC-142" target="VEC3x4T9xkFiJiI4OAcC-125">
          <mxGeometry relative="1" as="geometry">
            <Array as="points">
              <mxPoint x="638" y="2056" />
            </Array>
          </mxGeometry>
        </mxCell>
        <mxCell id="VEC3x4T9xkFiJiI4OAcC-266" value="*" style="edgeLabel;resizable=0;labelBackgroundColor=none;fontSize=12;align=left;verticalAlign=bottom;" vertex="1" parent="VEC3x4T9xkFiJiI4OAcC-265">
          <mxGeometry x="-1" relative="1" as="geometry" />
        </mxCell>
        <mxCell id="VEC3x4T9xkFiJiI4OAcC-267" value="1" style="edgeLabel;resizable=0;labelBackgroundColor=none;fontSize=12;align=right;verticalAlign=top;" vertex="1" parent="VEC3x4T9xkFiJiI4OAcC-265">
          <mxGeometry x="1" relative="1" as="geometry" />
        </mxCell>
        <mxCell id="VEC3x4T9xkFiJiI4OAcC-268" value="Contains" style="curved=1;startArrow=none;endArrow=none;exitX=0.6346601887953592;exitY=-0.0012658227848101266;entryX=0.6949066153999465;entryY=0.9983108108108109;rounded=0;" edge="1" parent="1" source="VEC3x4T9xkFiJiI4OAcC-125" target="VEC3x4T9xkFiJiI4OAcC-161">
          <mxGeometry relative="1" as="geometry">
            <Array as="points">
              <mxPoint x="1083" y="1592" />
            </Array>
          </mxGeometry>
        </mxCell>
        <mxCell id="VEC3x4T9xkFiJiI4OAcC-269" value="*" style="edgeLabel;resizable=0;labelBackgroundColor=none;fontSize=12;align=right;verticalAlign=bottom;" vertex="1" parent="VEC3x4T9xkFiJiI4OAcC-268">
          <mxGeometry x="-1" relative="1" as="geometry" />
        </mxCell>
        <mxCell id="VEC3x4T9xkFiJiI4OAcC-270" value="many" style="edgeLabel;resizable=0;labelBackgroundColor=none;fontSize=12;align=left;verticalAlign=top;" vertex="1" parent="VEC3x4T9xkFiJiI4OAcC-268">
          <mxGeometry x="1" relative="1" as="geometry" />
        </mxCell>
        <mxCell id="VEC3x4T9xkFiJiI4OAcC-271" value="Belongs To" style="curved=1;startArrow=none;endArrow=none;exitX=0.3112003388254056;exitY=0.9983108108108109;entryX=0.36841494418336423;entryY=-0.0012658227848101266;rounded=0;" edge="1" parent="1" source="VEC3x4T9xkFiJiI4OAcC-161" target="VEC3x4T9xkFiJiI4OAcC-125">
          <mxGeometry relative="1" as="geometry">
            <Array as="points">
              <mxPoint x="995" y="1592" />
            </Array>
          </mxGeometry>
        </mxCell>
        <mxCell id="VEC3x4T9xkFiJiI4OAcC-272" value="*" style="edgeLabel;resizable=0;labelBackgroundColor=none;fontSize=12;align=right;verticalAlign=top;" vertex="1" parent="VEC3x4T9xkFiJiI4OAcC-271">
          <mxGeometry x="-1" relative="1" as="geometry" />
        </mxCell>
        <mxCell id="VEC3x4T9xkFiJiI4OAcC-273" value="1" style="edgeLabel;resizable=0;labelBackgroundColor=none;fontSize=12;align=left;verticalAlign=bottom;" vertex="1" parent="VEC3x4T9xkFiJiI4OAcC-271">
          <mxGeometry x="1" relative="1" as="geometry" />
        </mxCell>
        <mxCell id="VEC3x4T9xkFiJiI4OAcC-274" value="Contains" style="curved=1;startArrow=none;endArrow=none;exitX=1.0015652703900708;exitY=0.9861852159322045;entryX=0.2738039105714885;entryY=0.0011627906976744186;rounded=0;" edge="1" parent="1" source="VEC3x4T9xkFiJiI4OAcC-125" target="VEC3x4T9xkFiJiI4OAcC-75">
          <mxGeometry relative="1" as="geometry">
            <Array as="points">
              <mxPoint x="1209" y="2056" />
            </Array>
          </mxGeometry>
        </mxCell>
        <mxCell id="VEC3x4T9xkFiJiI4OAcC-275" value="*" style="edgeLabel;resizable=0;labelBackgroundColor=none;fontSize=12;align=left;verticalAlign=top;" vertex="1" parent="VEC3x4T9xkFiJiI4OAcC-274">
          <mxGeometry x="-1" relative="1" as="geometry" />
        </mxCell>
        <mxCell id="VEC3x4T9xkFiJiI4OAcC-276" value="many" style="edgeLabel;resizable=0;labelBackgroundColor=none;fontSize=12;align=right;verticalAlign=bottom;" vertex="1" parent="VEC3x4T9xkFiJiI4OAcC-274">
          <mxGeometry x="1" relative="1" as="geometry" />
        </mxCell>
        <mxCell id="VEC3x4T9xkFiJiI4OAcC-277" value="Belongs To" style="curved=1;startArrow=none;endArrow=none;exitX=0.7130252252810849;exitY=0.0011627906976744186;entryX=1.0015652703900708;entryY=0.7423405524036396;rounded=0;" edge="1" parent="1" source="VEC3x4T9xkFiJiI4OAcC-75" target="VEC3x4T9xkFiJiI4OAcC-125">
          <mxGeometry relative="1" as="geometry">
            <Array as="points">
              <mxPoint x="1379" y="2056" />
            </Array>
          </mxGeometry>
        </mxCell>
        <mxCell id="VEC3x4T9xkFiJiI4OAcC-278" value="*" style="edgeLabel;resizable=0;labelBackgroundColor=none;fontSize=12;align=right;verticalAlign=bottom;" vertex="1" parent="VEC3x4T9xkFiJiI4OAcC-277">
          <mxGeometry x="-1" relative="1" as="geometry" />
        </mxCell>
        <mxCell id="VEC3x4T9xkFiJiI4OAcC-279" value="1" style="edgeLabel;resizable=0;labelBackgroundColor=none;fontSize=12;align=left;verticalAlign=top;" vertex="1" parent="VEC3x4T9xkFiJiI4OAcC-277">
          <mxGeometry x="1" relative="1" as="geometry" />
        </mxCell>
        <mxCell id="VEC3x4T9xkFiJiI4OAcC-280" value="Contains" style="curved=1;startArrow=none;endArrow=diamondThin;endSize=14;endFill=1;exitX=0.604098045674133;exitY=-0.0029411764705882353;entryX=0.61589683103355;entryY=1.0011627906976743;rounded=0;" edge="1" parent="1" source="VEC3x4T9xkFiJiI4OAcC-118" target="VEC3x4T9xkFiJiI4OAcC-75">
          <mxGeometry relative="1" as="geometry">
            <Array as="points">
              <mxPoint x="1341" y="2452" />
            </Array>
          </mxGeometry>
        </mxCell>
        <mxCell id="VEC3x4T9xkFiJiI4OAcC-281" value="1" style="edgeLabel;resizable=0;labelBackgroundColor=none;fontSize=12;align=right;verticalAlign=bottom;" vertex="1" parent="VEC3x4T9xkFiJiI4OAcC-280">
          <mxGeometry x="-1" relative="1" as="geometry" />
        </mxCell>
        <mxCell id="VEC3x4T9xkFiJiI4OAcC-282" value="many" style="edgeLabel;resizable=0;labelBackgroundColor=none;fontSize=12;align=left;verticalAlign=top;" vertex="1" parent="VEC3x4T9xkFiJiI4OAcC-280">
          <mxGeometry x="1" relative="1" as="geometry" />
        </mxCell>
        <mxCell id="VEC3x4T9xkFiJiI4OAcC-283" value="Belongs To" style="curved=1;startArrow=none;endArrow=none;exitX=0.0016183035714285715;exitY=0.8990323383042778;entryX=0.00030879446640316206;entryY=0.06393365613933598;rounded=0;" edge="1" parent="1" source="VEC3x4T9xkFiJiI4OAcC-75" target="VEC3x4T9xkFiJiI4OAcC-118">
          <mxGeometry relative="1" as="geometry">
            <Array as="points">
              <mxPoint x="1054" y="2452" />
            </Array>
          </mxGeometry>
        </mxCell>
        <mxCell id="VEC3x4T9xkFiJiI4OAcC-284" value="*" style="edgeLabel;resizable=0;labelBackgroundColor=none;fontSize=12;align=right;verticalAlign=top;" vertex="1" parent="VEC3x4T9xkFiJiI4OAcC-283">
          <mxGeometry x="-1" relative="1" as="geometry" />
        </mxCell>
        <mxCell id="VEC3x4T9xkFiJiI4OAcC-285" value="1" style="edgeLabel;resizable=0;labelBackgroundColor=none;fontSize=12;align=left;verticalAlign=bottom;" vertex="1" parent="VEC3x4T9xkFiJiI4OAcC-283">
          <mxGeometry x="1" relative="1" as="geometry" />
        </mxCell>
        <mxCell id="VEC3x4T9xkFiJiI4OAcC-286" value="Contains" style="curved=1;startArrow=none;endArrow=diamondThin;endSize=14;endFill=1;exitX=0.08703709284962162;exitY=0.9984756097560976;entryX=0.29997594544846057;entryY=0;rounded=0;" edge="1" parent="1" source="VEC3x4T9xkFiJiI4OAcC-142" target="VEC3x4T9xkFiJiI4OAcC-92">
          <mxGeometry relative="1" as="geometry">
            <Array as="points">
              <mxPoint x="416" y="2452" />
            </Array>
          </mxGeometry>
        </mxCell>
        <mxCell id="VEC3x4T9xkFiJiI4OAcC-287" value="1" style="edgeLabel;resizable=0;labelBackgroundColor=none;fontSize=12;align=right;verticalAlign=top;" vertex="1" parent="VEC3x4T9xkFiJiI4OAcC-286">
          <mxGeometry x="-1" relative="1" as="geometry" />
        </mxCell>
        <mxCell id="VEC3x4T9xkFiJiI4OAcC-288" value="many" style="edgeLabel;resizable=0;labelBackgroundColor=none;fontSize=12;align=left;verticalAlign=bottom;" vertex="1" parent="VEC3x4T9xkFiJiI4OAcC-286">
          <mxGeometry x="1" relative="1" as="geometry" />
        </mxCell>
        <mxCell id="VEC3x4T9xkFiJiI4OAcC-289" value="Belongs To" style="curved=1;startArrow=none;endArrow=none;exitX=0.7024713437081659;exitY=0;entryX=0.3558997202187932;entryY=0.9984756097560976;rounded=0;" edge="1" parent="1" source="VEC3x4T9xkFiJiI4OAcC-92" target="VEC3x4T9xkFiJiI4OAcC-142">
          <mxGeometry relative="1" as="geometry">
            <Array as="points">
              <mxPoint x="504" y="2452" />
            </Array>
          </mxGeometry>
        </mxCell>
        <mxCell id="VEC3x4T9xkFiJiI4OAcC-290" value="*" style="edgeLabel;resizable=0;labelBackgroundColor=none;fontSize=12;align=right;verticalAlign=bottom;" vertex="1" parent="VEC3x4T9xkFiJiI4OAcC-289">
          <mxGeometry x="-1" relative="1" as="geometry" />
        </mxCell>
        <mxCell id="VEC3x4T9xkFiJiI4OAcC-291" value="1" style="edgeLabel;resizable=0;labelBackgroundColor=none;fontSize=12;align=left;verticalAlign=top;" vertex="1" parent="VEC3x4T9xkFiJiI4OAcC-289">
          <mxGeometry x="1" relative="1" as="geometry" />
        </mxCell>
        <mxCell id="VEC3x4T9xkFiJiI4OAcC-292" value="Contains" style="curved=1;startArrow=none;endArrow=diamondThin;endSize=14;endFill=1;exitX=0.8029235797944558;exitY=-0.0017667844522968198;entryX=0.7682845146969939;entryY=0.9987341772151899;rounded=0;" edge="1" parent="1" source="VEC3x4T9xkFiJiI4OAcC-101" target="VEC3x4T9xkFiJiI4OAcC-125">
          <mxGeometry relative="1" as="geometry">
            <Array as="points">
              <mxPoint x="1128" y="2056" />
            </Array>
          </mxGeometry>
        </mxCell>
        <mxCell id="VEC3x4T9xkFiJiI4OAcC-293" value="1" style="edgeLabel;resizable=0;labelBackgroundColor=none;fontSize=12;align=right;verticalAlign=bottom;" vertex="1" parent="VEC3x4T9xkFiJiI4OAcC-292">
          <mxGeometry x="-1" relative="1" as="geometry" />
        </mxCell>
        <mxCell id="VEC3x4T9xkFiJiI4OAcC-294" value="many" style="edgeLabel;resizable=0;labelBackgroundColor=none;fontSize=12;align=left;verticalAlign=top;" vertex="1" parent="VEC3x4T9xkFiJiI4OAcC-292">
          <mxGeometry x="1" relative="1" as="geometry" />
        </mxCell>
        <mxCell id="VEC3x4T9xkFiJiI4OAcC-295" value="Belongs To" style="curved=1;startArrow=none;endArrow=none;exitX=0.300749885119963;exitY=0.9987341772151899;entryX=0.2671619821929858;entryY=-0.0017667844522968198;rounded=0;" edge="1" parent="1" source="VEC3x4T9xkFiJiI4OAcC-125" target="VEC3x4T9xkFiJiI4OAcC-101">
          <mxGeometry relative="1" as="geometry">
            <Array as="points">
              <mxPoint x="973" y="2056" />
            </Array>
          </mxGeometry>
        </mxCell>
        <mxCell id="VEC3x4T9xkFiJiI4OAcC-296" value="*" style="edgeLabel;resizable=0;labelBackgroundColor=none;fontSize=12;align=right;verticalAlign=top;" vertex="1" parent="VEC3x4T9xkFiJiI4OAcC-295">
          <mxGeometry x="-1" relative="1" as="geometry" />
        </mxCell>
        <mxCell id="VEC3x4T9xkFiJiI4OAcC-297" value="1" style="edgeLabel;resizable=0;labelBackgroundColor=none;fontSize=12;align=left;verticalAlign=bottom;" vertex="1" parent="VEC3x4T9xkFiJiI4OAcC-295">
          <mxGeometry x="1" relative="1" as="geometry" />
        </mxCell>
        <mxCell id="VEC3x4T9xkFiJiI4OAcC-298" value="Contains" style="curved=1;startArrow=none;endArrow=diamondThin;endSize=14;endFill=1;exitX=0.6814395005992161;exitY=0;entryX=1.0002738699261993;entryY=0.6965117248852211;rounded=0;" edge="1" parent="1" source="VEC3x4T9xkFiJiI4OAcC-113" target="VEC3x4T9xkFiJiI4OAcC-142">
          <mxGeometry relative="1" as="geometry">
            <Array as="points">
              <mxPoint x="966" y="2452" />
            </Array>
          </mxGeometry>
        </mxCell>
        <mxCell id="VEC3x4T9xkFiJiI4OAcC-299" value="1" style="edgeLabel;resizable=0;labelBackgroundColor=none;fontSize=12;align=right;verticalAlign=bottom;" vertex="1" parent="VEC3x4T9xkFiJiI4OAcC-298">
          <mxGeometry x="-1" relative="1" as="geometry" />
        </mxCell>
        <mxCell id="VEC3x4T9xkFiJiI4OAcC-300" value="many" style="edgeLabel;resizable=0;labelBackgroundColor=none;fontSize=12;align=left;verticalAlign=top;" vertex="1" parent="VEC3x4T9xkFiJiI4OAcC-298">
          <mxGeometry x="1" relative="1" as="geometry" />
        </mxCell>
        <mxCell id="VEC3x4T9xkFiJiI4OAcC-301" value="Belongs To" style="curved=1;startArrow=none;endArrow=none;exitX=1.0002738699261993;exitY=0.8738564720021946;entryX=0.3562100392971516;entryY=0;rounded=0;" edge="1" parent="1" source="VEC3x4T9xkFiJiI4OAcC-142" target="VEC3x4T9xkFiJiI4OAcC-113">
          <mxGeometry relative="1" as="geometry">
            <Array as="points">
              <mxPoint x="770" y="2452" />
            </Array>
          </mxGeometry>
        </mxCell>
        <mxCell id="VEC3x4T9xkFiJiI4OAcC-302" value="*" style="edgeLabel;resizable=0;labelBackgroundColor=none;fontSize=12;align=left;verticalAlign=top;" vertex="1" parent="VEC3x4T9xkFiJiI4OAcC-301">
          <mxGeometry x="-1" relative="1" as="geometry" />
        </mxCell>
        <mxCell id="VEC3x4T9xkFiJiI4OAcC-303" value="1" style="edgeLabel;resizable=0;labelBackgroundColor=none;fontSize=12;align=right;verticalAlign=bottom;" vertex="1" parent="VEC3x4T9xkFiJiI4OAcC-301">
          <mxGeometry x="1" relative="1" as="geometry" />
        </mxCell>
        <mxCell id="VEC3x4T9xkFiJiI4OAcC-304" value="Contains" style="curved=1;startArrow=none;endArrow=diamondThin;endSize=14;endFill=1;exitX=0.5646362843391444;exitY=0.002;entryX=1.0015652703900708;entryY=0.6464600587339232;rounded=0;" edge="1" parent="1" source="VEC3x4T9xkFiJiI4OAcC-156" target="VEC3x4T9xkFiJiI4OAcC-125">
          <mxGeometry relative="1" as="geometry">
            <Array as="points">
              <mxPoint x="1599" y="2056" />
            </Array>
          </mxGeometry>
        </mxCell>
        <mxCell id="VEC3x4T9xkFiJiI4OAcC-305" value="1" style="edgeLabel;resizable=0;labelBackgroundColor=none;fontSize=12;align=right;verticalAlign=bottom;" vertex="1" parent="VEC3x4T9xkFiJiI4OAcC-304">
          <mxGeometry x="-1" relative="1" as="geometry" />
        </mxCell>
        <mxCell id="VEC3x4T9xkFiJiI4OAcC-306" value="many" style="edgeLabel;resizable=0;labelBackgroundColor=none;fontSize=12;align=left;verticalAlign=top;" vertex="1" parent="VEC3x4T9xkFiJiI4OAcC-304">
          <mxGeometry x="1" relative="1" as="geometry" />
        </mxCell>
        <mxCell id="VEC3x4T9xkFiJiI4OAcC-307" value="Belongs To" style="curved=1;startArrow=none;endArrow=none;exitX=1.0015652703900708;exitY=0.6892006660182101;entryX=0.37207057586636977;entryY=0.002;rounded=0;" edge="1" parent="1" source="VEC3x4T9xkFiJiI4OAcC-125" target="VEC3x4T9xkFiJiI4OAcC-156">
          <mxGeometry relative="1" as="geometry">
            <Array as="points">
              <mxPoint x="1474" y="2056" />
            </Array>
          </mxGeometry>
        </mxCell>
        <mxCell id="VEC3x4T9xkFiJiI4OAcC-308" value="*" style="edgeLabel;resizable=0;labelBackgroundColor=none;fontSize=12;align=left;verticalAlign=top;" vertex="1" parent="VEC3x4T9xkFiJiI4OAcC-307">
          <mxGeometry x="-1" relative="1" as="geometry" />
        </mxCell>
        <mxCell id="VEC3x4T9xkFiJiI4OAcC-309" value="1" style="edgeLabel;resizable=0;labelBackgroundColor=none;fontSize=12;align=right;verticalAlign=bottom;" vertex="1" parent="VEC3x4T9xkFiJiI4OAcC-307">
          <mxGeometry x="1" relative="1" as="geometry" />
        </mxCell>
      </root>
    </mxGraphModel>
  </diagram>
</mxfile>
